<?xml version="1.0" encoding="UTF-8" standalone="no"?>
<!DOCTYPE svg PUBLIC "-//W3C//DTD SVG 1.1//EN"
 "http://www.w3.org/Graphics/SVG/1.1/DTD/svg11.dtd">
<!-- Generated by graphviz version 2.38.0 (20140413.2041)
 -->
<!-- Title: controllers_diagram Pages: 1 -->
<svg width="1003pt" height="648pt"
 viewBox="0.00 0.00 1002.75 647.83" xmlns="http://www.w3.org/2000/svg" xmlns:xlink="http://www.w3.org/1999/xlink">
<g id="graph0" class="graph" transform="scale(1 1) rotate(0) translate(525.758 354)">
<title>controllers_diagram</title>
<polygon fill="white" stroke="none" points="-525.758,293.827 -525.758,-354 476.988,-354 476.988,293.827 -525.758,293.827"/>
<!-- _diagram_info -->
<g id="node1" class="node"><title>_diagram_info</title>
<text text-anchor="start" x="298.28" y="-335.6" font-family="Times,serif" font-size="13.00">Controllers diagram</text>
<text text-anchor="start" x="298.28" y="-322.6" font-family="Times,serif" font-size="13.00">Date: Aug 20 2014 &#45; 13:38</text>
<text text-anchor="start" x="298.28" y="-309.6" font-family="Times,serif" font-size="13.00">Generated by RailRoady 1.1.1</text>
<text text-anchor="start" x="298.28" y="-296.6" font-family="Times,serif" font-size="13.00">http://railroady.prestonlee.com</text>
</g>
<!-- Api::ApplicationController -->
<g id="node2" class="node"><title>Api::ApplicationController</title>
<path fill="none" stroke="black" d="M-119.132,95.0197C-119.132,95.0197 25.2886,95.0197 25.2886,95.0197 31.2886,95.0197 37.2886,89.0197 37.2886,83.0197 37.2886,83.0197 37.2886,-24.9803 37.2886,-24.9803 37.2886,-30.9803 31.2886,-36.9803 25.2886,-36.9803 25.2886,-36.9803 -119.132,-36.9803 -119.132,-36.9803 -125.132,-36.9803 -131.132,-30.9803 -131.132,-24.9803 -131.132,-24.9803 -131.132,83.0197 -131.132,83.0197 -131.132,89.0197 -125.132,95.0197 -119.132,95.0197"/>
<text text-anchor="middle" x="-46.9219" y="-21.7803" font-family="Times,serif" font-size="14.00">Api::ApplicationController</text>
<polyline fill="none" stroke="black" points="-131.132,-14.9803 37.2886,-14.9803 "/>
<text text-anchor="start" x="-123.132" y="0.21967" font-family="Times,serif" font-size="14.00">custom_api_error</text>
<text text-anchor="start" x="-123.132" y="14.2197" font-family="Times,serif" font-size="14.00">error</text>
<text text-anchor="start" x="-123.132" y="28.2197" font-family="Times,serif" font-size="14.00">invalid_request</text>
<text text-anchor="start" x="-123.132" y="42.2197" font-family="Times,serif" font-size="14.00">record_not_found</text>
<polyline fill="none" stroke="black" points="-131.132,49.0197 37.2886,49.0197 "/>
<polyline fill="none" stroke="black" points="-131.132,73.0197 37.2886,73.0197 "/>
<text text-anchor="start" x="-123.132" y="88.2197" font-family="Times,serif" font-size="14.00">_layout</text>
</g>
<!-- Api::V1::DeemedValuesController -->
<g id="node3" class="node"><title>Api::V1::DeemedValuesController</title>
<path fill="none" stroke="black" d="M248.243,-82.863C248.243,-82.863 435.422,-82.863 435.422,-82.863 441.422,-82.863 447.422,-88.863 447.422,-94.863 447.422,-94.863 447.422,-160.863 447.422,-160.863 447.422,-166.863 441.422,-172.863 435.422,-172.863 435.422,-172.863 248.243,-172.863 248.243,-172.863 242.243,-172.863 236.243,-166.863 236.243,-160.863 236.243,-160.863 236.243,-94.863 236.243,-94.863 236.243,-88.863 242.243,-82.863 248.243,-82.863"/>
<text text-anchor="middle" x="341.832" y="-157.663" font-family="Times,serif" font-size="14.00">Api::V1::DeemedValuesController</text>
<polyline fill="none" stroke="black" points="236.243,-150.863 447.422,-150.863 "/>
<text text-anchor="start" x="244.243" y="-135.663" font-family="Times,serif" font-size="14.00">index</text>
<polyline fill="none" stroke="black" points="236.243,-128.863 447.422,-128.863 "/>
<polyline fill="none" stroke="black" points="236.243,-104.863 447.422,-104.863 "/>
<text text-anchor="start" x="244.243" y="-89.663" font-family="Times,serif" font-size="14.00">_layout</text>
</g>
<!-- Api::ApplicationController&#45;&gt;Api::V1::DeemedValuesController -->
<g id="edge2" class="edge"><title>Api::ApplicationController&#45;&gt;Api::V1::DeemedValuesController</title>
<path fill="none" stroke="black" d="M37.432,-5.02154C95.7165,-28.5424 173.68,-60.0047 236.113,-85.1998"/>
</g>
<!-- Api::V1::EntitlementsController -->
<g id="node4" class="node"><title>Api::V1::EntitlementsController</title>
<path fill="none" stroke="black" d="M-218.405,289.327C-218.405,289.327 -44.4259,289.327 -44.4259,289.327 -38.4259,289.327 -32.4259,283.327 -32.4259,277.327 -32.4259,277.327 -32.4259,197.327 -32.4259,197.327 -32.4259,191.327 -38.4259,185.327 -44.4259,185.327 -44.4259,185.327 -218.405,185.327 -218.405,185.327 -224.405,185.327 -230.405,191.327 -230.405,197.327 -230.405,197.327 -230.405,277.327 -230.405,277.327 -230.405,283.327 -224.405,289.327 -218.405,289.327"/>
<text text-anchor="middle" x="-131.416" y="200.527" font-family="Times,serif" font-size="14.00">Api::V1::EntitlementsController</text>
<polyline fill="none" stroke="black" points="-230.405,207.327 -32.4259,207.327 "/>
<text text-anchor="start" x="-222.405" y="222.527" font-family="Times,serif" font-size="14.00">index</text>
<text text-anchor="start" x="-222.405" y="236.527" font-family="Times,serif" font-size="14.00">validated_entitlements</text>
<polyline fill="none" stroke="black" points="-230.405,243.327 -32.4259,243.327 "/>
<polyline fill="none" stroke="black" points="-230.405,267.327 -32.4259,267.327 "/>
<text text-anchor="start" x="-222.405" y="282.527" font-family="Times,serif" font-size="14.00">_layout</text>
</g>
<!-- Api::ApplicationController&#45;&gt;Api::V1::EntitlementsController -->
<g id="edge3" class="edge"><title>Api::ApplicationController&#45;&gt;Api::V1::EntitlementsController</title>
<path fill="none" stroke="black" d="M-73.7723,95.2156C-85.563,124.284 -99.2071,157.921 -110.26,185.172"/>
</g>
<!-- Api::V1::HarvestReturnsController -->
<g id="node5" class="node"><title>Api::V1::HarvestReturnsController</title>
<path fill="none" stroke="black" d="M-495.723,-90.3216C-495.723,-90.3216 -305.419,-90.3216 -305.419,-90.3216 -299.419,-90.3216 -293.419,-96.3216 -293.419,-102.322 -293.419,-102.322 -293.419,-238.322 -293.419,-238.322 -293.419,-244.322 -299.419,-250.322 -305.419,-250.322 -305.419,-250.322 -495.723,-250.322 -495.723,-250.322 -501.723,-250.322 -507.723,-244.322 -507.723,-238.322 -507.723,-238.322 -507.723,-102.322 -507.723,-102.322 -507.723,-96.3216 -501.723,-90.3216 -495.723,-90.3216"/>
<text text-anchor="middle" x="-400.571" y="-235.122" font-family="Times,serif" font-size="14.00">Api::V1::HarvestReturnsController</text>
<polyline fill="none" stroke="black" points="-507.723,-228.322 -293.419,-228.322 "/>
<text text-anchor="start" x="-499.723" y="-213.122" font-family="Times,serif" font-size="14.00">completed_return</text>
<text text-anchor="start" x="-499.723" y="-199.122" font-family="Times,serif" font-size="14.00">completion</text>
<text text-anchor="start" x="-499.723" y="-185.122" font-family="Times,serif" font-size="14.00">index</text>
<text text-anchor="start" x="-499.723" y="-171.122" font-family="Times,serif" font-size="14.00">returns_listed</text>
<text text-anchor="start" x="-499.723" y="-157.122" font-family="Times,serif" font-size="14.00">returns_saved</text>
<text text-anchor="start" x="-499.723" y="-143.122" font-family="Times,serif" font-size="14.00">update</text>
<polyline fill="none" stroke="black" points="-507.723,-136.322 -293.419,-136.322 "/>
<polyline fill="none" stroke="black" points="-507.723,-112.322 -293.419,-112.322 "/>
<text text-anchor="start" x="-499.723" y="-97.1216" font-family="Times,serif" font-size="14.00">_layout</text>
</g>
<!-- Api::ApplicationController&#45;&gt;Api::V1::HarvestReturnsController -->
<g id="edge4" class="edge"><title>Api::ApplicationController&#45;&gt;Api::V1::HarvestReturnsController</title>
<path fill="none" stroke="black" d="M-131.18,-18.4743C-179.702,-45.8244 -241.174,-80.4742 -293.141,-109.767"/>
</g>
<!-- Api::V1::OrderTransactionsController -->
<g id="node6" class="node"><title>Api::V1::OrderTransactionsController</title>
<path fill="none" stroke="black" d="M6.20918,-105.381C6.20918,-105.381 213.117,-105.381 213.117,-105.381 219.117,-105.381 225.117,-111.381 225.117,-117.381 225.117,-117.381 225.117,-183.381 225.117,-183.381 225.117,-189.381 219.117,-195.381 213.117,-195.381 213.117,-195.381 6.20918,-195.381 6.20918,-195.381 0.209183,-195.381 -5.79082,-189.381 -5.79082,-183.381 -5.79082,-183.381 -5.79082,-117.381 -5.79082,-117.381 -5.79082,-111.381 0.209183,-105.381 6.20918,-105.381"/>
<text text-anchor="middle" x="109.663" y="-180.181" font-family="Times,serif" font-size="14.00">Api::V1::OrderTransactionsController</text>
<polyline fill="none" stroke="black" points="-5.79082,-173.381 225.117,-173.381 "/>
<text text-anchor="start" x="2.20918" y="-158.181" font-family="Times,serif" font-size="14.00">index</text>
<polyline fill="none" stroke="black" points="-5.79082,-151.381 225.117,-151.381 "/>
<polyline fill="none" stroke="black" points="-5.79082,-127.381 225.117,-127.381 "/>
<text text-anchor="start" x="2.20918" y="-112.181" font-family="Times,serif" font-size="14.00">_layout</text>
</g>
<!-- Api::ApplicationController&#45;&gt;Api::V1::OrderTransactionsController -->
<g id="edge5" class="edge"><title>Api::ApplicationController&#45;&gt;Api::V1::OrderTransactionsController</title>
<path fill="none" stroke="black" d="M10.7176,-37.0182C30.5125,-59.6973 52.2044,-84.5498 70.2201,-105.191"/>
</g>
<!-- Api::V1::QuotaHoldingsController -->
<g id="node7" class="node"><title>Api::V1::QuotaHoldingsController</title>
<path fill="none" stroke="black" d="M-230.537,-132.84C-230.537,-132.84 -41.7712,-132.84 -41.7712,-132.84 -35.7712,-132.84 -29.7712,-138.84 -29.7712,-144.84 -29.7712,-144.84 -29.7712,-210.84 -29.7712,-210.84 -29.7712,-216.84 -35.7712,-222.84 -41.7712,-222.84 -41.7712,-222.84 -230.537,-222.84 -230.537,-222.84 -236.537,-222.84 -242.537,-216.84 -242.537,-210.84 -242.537,-210.84 -242.537,-144.84 -242.537,-144.84 -242.537,-138.84 -236.537,-132.84 -230.537,-132.84"/>
<text text-anchor="middle" x="-136.154" y="-207.64" font-family="Times,serif" font-size="14.00">Api::V1::QuotaHoldingsController</text>
<polyline fill="none" stroke="black" points="-242.537,-200.84 -29.7712,-200.84 "/>
<text text-anchor="start" x="-234.537" y="-185.64" font-family="Times,serif" font-size="14.00">index</text>
<polyline fill="none" stroke="black" points="-242.537,-178.84 -29.7712,-178.84 "/>
<polyline fill="none" stroke="black" points="-242.537,-154.84 -29.7712,-154.84 "/>
<text text-anchor="start" x="-234.537" y="-139.64" font-family="Times,serif" font-size="14.00">_layout</text>
</g>
<!-- Api::ApplicationController&#45;&gt;Api::V1::QuotaHoldingsController -->
<g id="edge6" class="edge"><title>Api::ApplicationController&#45;&gt;Api::V1::QuotaHoldingsController</title>
<path fill="none" stroke="black" d="M-75.4008,-37.0006C-88.8661,-68.2159 -104.598,-104.685 -116.678,-132.691"/>
</g>
<!-- Api::V1::Trades::EntitlementsController -->
<g id="node8" class="node"><title>Api::V1::Trades::EntitlementsController</title>
<path fill="none" stroke="black" d="M-447.352,103.524C-447.352,103.524 -227.989,103.524 -227.989,103.524 -221.989,103.524 -215.989,97.5236 -215.989,91.5236 -215.989,91.5236 -215.989,-30.4764 -215.989,-30.4764 -215.989,-36.4764 -221.989,-42.4764 -227.989,-42.4764 -227.989,-42.4764 -447.352,-42.4764 -447.352,-42.4764 -453.352,-42.4764 -459.352,-36.4764 -459.352,-30.4764 -459.352,-30.4764 -459.352,91.5236 -459.352,91.5236 -459.352,97.5236 -453.352,103.524 -447.352,103.524"/>
<text text-anchor="middle" x="-337.671" y="-27.2764" font-family="Times,serif" font-size="14.00">Api::V1::Trades::EntitlementsController</text>
<polyline fill="none" stroke="black" points="-459.352,-20.4764 -215.989,-20.4764 "/>
<text text-anchor="start" x="-451.352" y="-5.27637" font-family="Times,serif" font-size="14.00">create</text>
<text text-anchor="start" x="-451.352" y="8.72363" font-family="Times,serif" font-size="14.00">index</text>
<text text-anchor="start" x="-451.352" y="22.7236" font-family="Times,serif" font-size="14.00">show</text>
<text text-anchor="start" x="-451.352" y="36.7236" font-family="Times,serif" font-size="14.00">trade_accepted</text>
<text text-anchor="start" x="-451.352" y="50.7236" font-family="Times,serif" font-size="14.00">trade_failed</text>
<polyline fill="none" stroke="black" points="-459.352,57.5236 -215.989,57.5236 "/>
<polyline fill="none" stroke="black" points="-459.352,81.5236 -215.989,81.5236 "/>
<text text-anchor="start" x="-451.352" y="96.7236" font-family="Times,serif" font-size="14.00">_layout</text>
</g>
<!-- Api::ApplicationController&#45;&gt;Api::V1::Trades::EntitlementsController -->
<g id="edge7" class="edge"><title>Api::ApplicationController&#45;&gt;Api::V1::Trades::EntitlementsController</title>
<path fill="none" stroke="black" d="M-131.409,29.4567C-157.816,29.5933 -187.495,29.7468 -215.934,29.8939"/>
</g>
<!-- Api::V1::Trades::QuotaHoldingsController -->
<g id="node9" class="node"><title>Api::V1::Trades::QuotaHoldingsController</title>
<path fill="none" stroke="black" d="M226.838,260.987C226.838,260.987 460.988,260.987 460.988,260.987 466.988,260.987 472.988,254.987 472.988,248.987 472.988,248.987 472.988,126.987 472.988,126.987 472.988,120.987 466.988,114.987 460.988,114.987 460.988,114.987 226.838,114.987 226.838,114.987 220.838,114.987 214.838,120.987 214.838,126.987 214.838,126.987 214.838,248.987 214.838,248.987 214.838,254.987 220.838,260.987 226.838,260.987"/>
<text text-anchor="middle" x="343.913" y="130.187" font-family="Times,serif" font-size="14.00">Api::V1::Trades::QuotaHoldingsController</text>
<polyline fill="none" stroke="black" points="214.838,136.987 472.988,136.987 "/>
<text text-anchor="start" x="222.838" y="152.187" font-family="Times,serif" font-size="14.00">create</text>
<text text-anchor="start" x="222.838" y="166.187" font-family="Times,serif" font-size="14.00">index</text>
<text text-anchor="start" x="222.838" y="180.187" font-family="Times,serif" font-size="14.00">show</text>
<text text-anchor="start" x="222.838" y="194.187" font-family="Times,serif" font-size="14.00">trade_accepted</text>
<text text-anchor="start" x="222.838" y="208.187" font-family="Times,serif" font-size="14.00">trade_failed</text>
<polyline fill="none" stroke="black" points="214.838,214.987 472.988,214.987 "/>
<polyline fill="none" stroke="black" points="214.838,238.987 472.988,238.987 "/>
<text text-anchor="start" x="222.838" y="254.187" font-family="Times,serif" font-size="14.00">_layout</text>
</g>
<!-- Api::ApplicationController&#45;&gt;Api::V1::Trades::QuotaHoldingsController -->
<g id="edge8" class="edge"><title>Api::ApplicationController&#45;&gt;Api::V1::Trades::QuotaHoldingsController</title>
<path fill="none" stroke="black" d="M37.4023,63.3175C89.1274,84.356 156.402,111.719 214.742,135.448"/>
</g>
<!-- Api::V1::TransactionAccountsController -->
<g id="node10" class="node"><title>Api::V1::TransactionAccountsController</title>
<path fill="none" stroke="black" d="M-509.758,282.36C-509.758,282.36 -288.07,282.36 -288.07,282.36 -282.07,282.36 -276.07,276.36 -276.07,270.36 -276.07,270.36 -276.07,190.36 -276.07,190.36 -276.07,184.36 -282.07,178.36 -288.07,178.36 -288.07,178.36 -509.758,178.36 -509.758,178.36 -515.758,178.36 -521.758,184.36 -521.758,190.36 -521.758,190.36 -521.758,270.36 -521.758,270.36 -521.758,276.36 -515.758,282.36 -509.758,282.36"/>
<text text-anchor="middle" x="-398.914" y="193.56" font-family="Times,serif" font-size="14.00">Api::V1::TransactionAccountsController</text>
<polyline fill="none" stroke="black" points="-521.758,200.36 -276.07,200.36 "/>
<text text-anchor="start" x="-513.758" y="215.56" font-family="Times,serif" font-size="14.00">index</text>
<text text-anchor="start" x="-513.758" y="229.56" font-family="Times,serif" font-size="14.00">quota_holdings</text>
<polyline fill="none" stroke="black" points="-521.758,236.36 -276.07,236.36 "/>
<polyline fill="none" stroke="black" points="-521.758,260.36 -276.07,260.36 "/>
<text text-anchor="start" x="-513.758" y="275.56" font-family="Times,serif" font-size="14.00">_layout</text>
</g>
<!-- Api::ApplicationController&#45;&gt;Api::V1::TransactionAccountsController -->
<g id="edge9" class="edge"><title>Api::ApplicationController&#45;&gt;Api::V1::TransactionAccountsController</title>
<path fill="none" stroke="black" d="M-131.233,77.2458C-184.52,107.726 -253.365,147.106 -307.892,178.295"/>
</g>
<!-- ApplicationController -->
<g id="node11" class="node"><title>ApplicationController</title>
<path fill="none" stroke="black" d="M55.8976,251.038C55.8976,251.038 171.539,251.038 171.539,251.038 177.539,251.038 183.539,245.038 183.539,239.038 183.539,239.038 183.539,171.038 183.539,171.038 183.539,165.038 177.539,159.038 171.539,159.038 171.539,159.038 55.8976,159.038 55.8976,159.038 49.8976,159.038 43.8976,165.038 43.8976,171.038 43.8976,171.038 43.8976,239.038 43.8976,239.038 43.8976,245.038 49.8976,251.038 55.8976,251.038"/>
<text text-anchor="middle" x="113.718" y="174.238" font-family="Times,serif" font-size="14.00">ApplicationController</text>
<polyline fill="none" stroke="black" points="43.8976,181.038 183.539,181.038 "/>
<polyline fill="none" stroke="black" points="43.8976,205.038 183.539,205.038 "/>
<polyline fill="none" stroke="black" points="43.8976,229.038 183.539,229.038 "/>
<text text-anchor="start" x="51.8976" y="244.238" font-family="Times,serif" font-size="14.00">_layout</text>
</g>
<!-- ApplicationController&#45;&gt;Api::ApplicationController -->
<g id="edge1" class="edge"><title>ApplicationController&#45;&gt;Api::ApplicationController</title>
<path fill="none" stroke="black" d="M71.512,158.791C53.7569,139.336 32.767,116.337 13.4267,95.1452"/>
</g>
</g>
</svg>
