<?xml version="1.0" encoding="UTF-8" standalone="no"?>
<!DOCTYPE svg PUBLIC "-//W3C//DTD SVG 1.1//EN"
 "http://www.w3.org/Graphics/SVG/1.1/DTD/svg11.dtd">
<!-- Generated by graphviz version 2.36.0 (20140111.2315)
 -->
<!-- Title: controllers_diagram Pages: 1 -->
<svg width="691pt" height="428pt"
 viewBox="0.00 0.00 691.04 428.00" xmlns="http://www.w3.org/2000/svg" xmlns:xlink="http://www.w3.org/1999/xlink">
<g id="graph0" class="graph" transform="scale(1 1) rotate(0) translate(4 424)">
<title>controllers_diagram</title>
<polygon fill="white" stroke="none" points="-4,4 -4,-424 687.039,-424 687.039,4 -4,4"/>
<!-- _diagram_info -->
<g id="node1" class="node"><title>_diagram_info</title>
<text text-anchor="start" x="328" y="-405.6" font-family="Times,serif" font-size="13.00">Controllers diagram</text>
<text text-anchor="start" x="328" y="-392.6" font-family="Times,serif" font-size="13.00">Date: Jun 24 2014 &#45; 16:49</text>
<text text-anchor="start" x="328" y="-379.6" font-family="Times,serif" font-size="13.00">Generated by RailRoady 1.1.1</text>
<text text-anchor="start" x="328" y="-366.6" font-family="Times,serif" font-size="13.00">http://railroady.prestonlee.com</text>
</g>
<!-- Api::ApplicationController -->
<g id="node2" class="node"><title>Api::ApplicationController</title>
<path fill="none" stroke="black" d="M297.134,-190.572C297.134,-190.572 441.555,-190.572 441.555,-190.572 447.555,-190.572 453.555,-196.572 453.555,-202.572 453.555,-202.572 453.555,-296.572 453.555,-296.572 453.555,-302.572 447.555,-308.572 441.555,-308.572 441.555,-308.572 297.134,-308.572 297.134,-308.572 291.134,-308.572 285.134,-302.572 285.134,-296.572 285.134,-296.572 285.134,-202.572 285.134,-202.572 285.134,-196.572 291.134,-190.572 297.134,-190.572"/>
<text text-anchor="middle" x="369.345" y="-293.372" font-family="Times,serif" font-size="14.00">Api::ApplicationController</text>
<polyline fill="none" stroke="black" points="285.134,-286.572 453.555,-286.572 "/>
<text text-anchor="start" x="293.134" y="-271.372" font-family="Times,serif" font-size="14.00">error</text>
<text text-anchor="start" x="293.134" y="-257.372" font-family="Times,serif" font-size="14.00">invalid_request</text>
<text text-anchor="start" x="293.134" y="-243.372" font-family="Times,serif" font-size="14.00">record_not_found</text>
<polyline fill="none" stroke="black" points="285.134,-236.572 453.555,-236.572 "/>
<polyline fill="none" stroke="black" points="285.134,-212.572 453.555,-212.572 "/>
<text text-anchor="start" x="293.134" y="-197.372" font-family="Times,serif" font-size="14.00">_layout</text>
</g>
<!-- Api::V1::OrderTransactionsController -->
<g id="node3" class="node"><title>Api::V1::OrderTransactionsController</title>
<path fill="none" stroke="black" d="M464.13,-8.52802C464.13,-8.52802 671.039,-8.52802 671.039,-8.52802 677.039,-8.52802 683.039,-14.528 683.039,-20.528 683.039,-20.528 683.039,-86.528 683.039,-86.528 683.039,-92.528 677.039,-98.528 671.039,-98.528 671.039,-98.528 464.13,-98.528 464.13,-98.528 458.13,-98.528 452.13,-92.528 452.13,-86.528 452.13,-86.528 452.13,-20.528 452.13,-20.528 452.13,-14.528 458.13,-8.52802 464.13,-8.52802"/>
<text text-anchor="middle" x="567.584" y="-83.328" font-family="Times,serif" font-size="14.00">Api::V1::OrderTransactionsController</text>
<polyline fill="none" stroke="black" points="452.13,-76.528 683.039,-76.528 "/>
<text text-anchor="start" x="460.13" y="-61.328" font-family="Times,serif" font-size="14.00">index</text>
<polyline fill="none" stroke="black" points="452.13,-54.528 683.039,-54.528 "/>
<polyline fill="none" stroke="black" points="452.13,-30.528 683.039,-30.528 "/>
<text text-anchor="start" x="460.13" y="-15.328" font-family="Times,serif" font-size="14.00">_layout</text>
</g>
<!-- Api::ApplicationController&#45;&gt;Api::V1::OrderTransactionsController -->
<g id="edge2" class="edge"><title>Api::ApplicationController&#45;&gt;Api::V1::OrderTransactionsController</title>
<path fill="none" stroke="black" d="M429.092,-190.487C458.847,-161.061 494.255,-126.046 521.82,-98.7858"/>
</g>
<!-- Api::V1::QuotaHoldingsController -->
<g id="node4" class="node"><title>Api::V1::QuotaHoldingsController</title>
<path fill="none" stroke="black" d="M78.7679,-0.5C78.7679,-0.5 267.534,-0.5 267.534,-0.5 273.534,-0.5 279.534,-6.5 279.534,-12.5 279.534,-12.5 279.534,-92.5 279.534,-92.5 279.534,-98.5 273.534,-104.5 267.534,-104.5 267.534,-104.5 78.7679,-104.5 78.7679,-104.5 72.7679,-104.5 66.7679,-98.5 66.7679,-92.5 66.7679,-92.5 66.7679,-12.5 66.7679,-12.5 66.7679,-6.5 72.7679,-0.5 78.7679,-0.5"/>
<text text-anchor="middle" x="173.151" y="-89.3" font-family="Times,serif" font-size="14.00">Api::V1::QuotaHoldingsController</text>
<polyline fill="none" stroke="black" points="66.7679,-82.5 279.534,-82.5 "/>
<text text-anchor="start" x="74.7679" y="-67.3" font-family="Times,serif" font-size="14.00">index</text>
<text text-anchor="start" x="74.7679" y="-53.3" font-family="Times,serif" font-size="14.00">trade_accepted</text>
<polyline fill="none" stroke="black" points="66.7679,-46.5 279.534,-46.5 "/>
<polyline fill="none" stroke="black" points="66.7679,-22.5 279.534,-22.5 "/>
<text text-anchor="start" x="74.7679" y="-7.3" font-family="Times,serif" font-size="14.00">_layout</text>
</g>
<!-- Api::ApplicationController&#45;&gt;Api::V1::QuotaHoldingsController -->
<g id="edge3" class="edge"><title>Api::ApplicationController&#45;&gt;Api::V1::QuotaHoldingsController</title>
<path fill="none" stroke="black" d="M310.48,-190.444C283.278,-163.12 251.257,-130.956 224.981,-104.562"/>
</g>
<!-- Api::V1::Trades::QuotaHoldingsController -->
<g id="node5" class="node"><title>Api::V1::Trades::QuotaHoldingsController</title>
<path fill="none" stroke="black" d="M12,-235.699C12,-235.699 246.149,-235.699 246.149,-235.699 252.149,-235.699 258.149,-241.699 258.149,-247.699 258.149,-247.699 258.149,-341.699 258.149,-341.699 258.149,-347.699 252.149,-353.699 246.149,-353.699 246.149,-353.699 12,-353.699 12,-353.699 6,-353.699 0,-347.699 0,-341.699 0,-341.699 0,-247.699 0,-247.699 0,-241.699 6,-235.699 12,-235.699"/>
<text text-anchor="middle" x="129.075" y="-338.499" font-family="Times,serif" font-size="14.00">Api::V1::Trades::QuotaHoldingsController</text>
<polyline fill="none" stroke="black" points="0,-331.699 258.149,-331.699 "/>
<text text-anchor="start" x="8" y="-316.499" font-family="Times,serif" font-size="14.00">create</text>
<text text-anchor="start" x="8" y="-302.499" font-family="Times,serif" font-size="14.00">index</text>
<text text-anchor="start" x="8" y="-288.499" font-family="Times,serif" font-size="14.00">trade_accepted</text>
<polyline fill="none" stroke="black" points="0,-281.699 258.149,-281.699 "/>
<polyline fill="none" stroke="black" points="0,-257.699 258.149,-257.699 "/>
<text text-anchor="start" x="8" y="-242.499" font-family="Times,serif" font-size="14.00">_layout</text>
</g>
<!-- Api::ApplicationController&#45;&gt;Api::V1::Trades::QuotaHoldingsController -->
<g id="edge4" class="edge"><title>Api::ApplicationController&#45;&gt;Api::V1::Trades::QuotaHoldingsController</title>
<path fill="none" stroke="black" d="M284.972,-265.419C276.318,-267.044 267.392,-268.721 258.397,-270.41"/>
</g>
<!-- ApplicationController -->
<g id="node6" class="node"><title>ApplicationController</title>
<path fill="none" stroke="black" d="M551.374,-250.033C551.374,-250.033 667.016,-250.033 667.016,-250.033 673.016,-250.033 679.016,-256.033 679.016,-262.033 679.016,-262.033 679.016,-330.033 679.016,-330.033 679.016,-336.033 673.016,-342.033 667.016,-342.033 667.016,-342.033 551.374,-342.033 551.374,-342.033 545.374,-342.033 539.374,-336.033 539.374,-330.033 539.374,-330.033 539.374,-262.033 539.374,-262.033 539.374,-256.033 545.374,-250.033 551.374,-250.033"/>
<text text-anchor="middle" x="609.195" y="-326.833" font-family="Times,serif" font-size="14.00">ApplicationController</text>
<polyline fill="none" stroke="black" points="539.374,-320.033 679.016,-320.033 "/>
<polyline fill="none" stroke="black" points="539.374,-296.033 679.016,-296.033 "/>
<polyline fill="none" stroke="black" points="539.374,-272.033 679.016,-272.033 "/>
<text text-anchor="start" x="547.374" y="-256.833" font-family="Times,serif" font-size="14.00">_layout</text>
</g>
<!-- ApplicationController&#45;&gt;Api::ApplicationController -->
<g id="edge1" class="edge"><title>ApplicationController&#45;&gt;Api::ApplicationController</title>
<path fill="none" stroke="black" d="M539.176,-282.47C512.489,-277.3 481.79,-271.354 453.895,-265.95"/>
</g>
</g>
</svg>
