<?xml version="1.0" encoding="UTF-8" standalone="no"?>
<!DOCTYPE svg PUBLIC "-//W3C//DTD SVG 1.1//EN"
 "http://www.w3.org/Graphics/SVG/1.1/DTD/svg11.dtd">
<!-- Generated by graphviz version 2.36.0 (20140111.2315)
 -->
<!-- Title: models_diagram Pages: 1 -->
<svg width="607pt" height="470pt"
 viewBox="0.00 0.00 607.00 470.00" xmlns="http://www.w3.org/2000/svg" xmlns:xlink="http://www.w3.org/1999/xlink">
<g id="graph0" class="graph" transform="scale(1 1) rotate(0) translate(4 466)">
<title>models_diagram</title>
<polygon fill="white" stroke="none" points="-4,4 -4,-466 603,-466 603,4 -4,4"/>
<!-- _diagram_info -->
<g id="node1" class="node"><title>_diagram_info</title>
<text text-anchor="start" x="7.27979" y="-419.6" font-family="Times,serif" font-size="13.00">Models diagram</text>
<text text-anchor="start" x="7.27979" y="-406.6" font-family="Times,serif" font-size="13.00">Date: Jun 24 2014 &#45; 16:49</text>
<text text-anchor="start" x="7.27979" y="-393.6" font-family="Times,serif" font-size="13.00">Generated by RailRoady 1.1.1</text>
<text text-anchor="start" x="7.27979" y="-380.6" font-family="Times,serif" font-size="13.00">http://railroady.prestonlee.com</text>
</g>
<!-- Account -->
<g id="node2" class="node"><title>Account</title>
<path fill="none" stroke="black" d="M204.76,-354C204.76,-354 319.24,-354 319.24,-354 325.24,-354 331.24,-360 331.24,-366 331.24,-366 331.24,-442 331.24,-442 331.24,-448 325.24,-454 319.24,-454 319.24,-454 204.76,-454 204.76,-454 198.76,-454 192.76,-448 192.76,-442 192.76,-442 192.76,-366 192.76,-366 192.76,-360 198.76,-354 204.76,-354"/>
<text text-anchor="middle" x="262" y="-438.8" font-family="Times,serif" font-size="14.00">Account</text>
<polyline fill="none" stroke="black" points="192.76,-432 331.24,-432 "/>
<text text-anchor="start" x="200.76" y="-416.8" font-family="Times,serif" font-size="14.00">_id :BSON::ObjectId</text>
<text text-anchor="start" x="200.76" y="-402.8" font-family="Times,serif" font-size="14.00">client_name :String</text>
<text text-anchor="start" x="200.76" y="-388.8" font-family="Times,serif" font-size="14.00">client_number :String</text>
<text text-anchor="start" x="200.76" y="-374.8" font-family="Times,serif" font-size="14.00">created_at :Time</text>
<text text-anchor="start" x="200.76" y="-360.8" font-family="Times,serif" font-size="14.00">updated_at :Time</text>
</g>
<!-- StockHolding -->
<g id="node5" class="node"><title>StockHolding</title>
<path fill="none" stroke="black" d="M201.633,-181C201.633,-181 322.367,-181 322.367,-181 328.367,-181 334.367,-187 334.367,-193 334.367,-193 334.367,-269 334.367,-269 334.367,-275 328.367,-281 322.367,-281 322.367,-281 201.633,-281 201.633,-281 195.633,-281 189.633,-275 189.633,-269 189.633,-269 189.633,-193 189.633,-193 189.633,-187 195.633,-181 201.633,-181"/>
<text text-anchor="middle" x="262" y="-265.8" font-family="Times,serif" font-size="14.00">StockHolding</text>
<polyline fill="none" stroke="black" points="189.633,-259 334.367,-259 "/>
<text text-anchor="start" x="197.633" y="-243.8" font-family="Times,serif" font-size="14.00">_id :BSON::ObjectId</text>
<text text-anchor="start" x="197.633" y="-229.8" font-family="Times,serif" font-size="14.00">created_at :Time</text>
<text text-anchor="start" x="197.633" y="-215.8" font-family="Times,serif" font-size="14.00">qty :Integer</text>
<text text-anchor="start" x="197.633" y="-201.8" font-family="Times,serif" font-size="14.00">stock_symbol :Symbol</text>
<text text-anchor="start" x="197.633" y="-187.8" font-family="Times,serif" font-size="14.00">updated_at :Time</text>
</g>
<!-- Account&#45;&gt;StockHolding -->
<g id="edge1" class="edge"><title>Account&#45;&gt;StockHolding</title>
<path fill="none" stroke="#df1b95" d="M255.59,-345.785C255.153,-328.232 255.137,-308.886 255.542,-291.202"/>
<ellipse fill="none" stroke="#df1b95" cx="255.713" cy="-350" rx="4" ry="4"/>
<polygon fill="#df1b95" stroke="#df1b95" points="255.548,-291.005 260.327,-281.136 255.688,-286.007 255.829,-281.009 255.829,-281.009 255.829,-281.009 255.688,-286.007 251.331,-280.882 255.548,-291.005 255.548,-291.005"/>
</g>
<!-- Order -->
<g id="node3" class="node"><title>Order</title>
<path fill="none" stroke="black" d="M364.76,-153C364.76,-153 479.24,-153 479.24,-153 485.24,-153 491.24,-159 491.24,-165 491.24,-165 491.24,-297 491.24,-297 491.24,-303 485.24,-309 479.24,-309 479.24,-309 364.76,-309 364.76,-309 358.76,-309 352.76,-303 352.76,-297 352.76,-297 352.76,-165 352.76,-165 352.76,-159 358.76,-153 364.76,-153"/>
<text text-anchor="middle" x="422" y="-293.8" font-family="Times,serif" font-size="14.00">Order</text>
<polyline fill="none" stroke="black" points="352.76,-287 491.24,-287 "/>
<text text-anchor="start" x="360.76" y="-271.8" font-family="Times,serif" font-size="14.00">_id :BSON::ObjectId</text>
<text text-anchor="start" x="360.76" y="-257.8" font-family="Times,serif" font-size="14.00">caller_uuid :String</text>
<text text-anchor="start" x="360.76" y="-243.8" font-family="Times,serif" font-size="14.00">client_number :String</text>
<text text-anchor="start" x="360.76" y="-229.8" font-family="Times,serif" font-size="14.00">created_at :Time</text>
<text text-anchor="start" x="360.76" y="-215.8" font-family="Times,serif" font-size="14.00">order_type :Symbol</text>
<text text-anchor="start" x="360.76" y="-201.8" font-family="Times,serif" font-size="14.00">state :Symbol</text>
<text text-anchor="start" x="360.76" y="-187.8" font-family="Times,serif" font-size="14.00">stock_id :Object</text>
<text text-anchor="start" x="360.76" y="-173.8" font-family="Times,serif" font-size="14.00">stock_qty :Integer</text>
<text text-anchor="start" x="360.76" y="-159.8" font-family="Times,serif" font-size="14.00">updated_at :Time</text>
</g>
<!-- Timestamp -->
<g id="node6" class="node"><title>Timestamp</title>
<path fill="none" stroke="black" d="M279.309,-1C279.309,-1 390.691,-1 390.691,-1 396.691,-1 402.691,-7 402.691,-13 402.691,-13 402.691,-103 402.691,-103 402.691,-109 396.691,-115 390.691,-115 390.691,-115 279.309,-115 279.309,-115 273.309,-115 267.309,-109 267.309,-103 267.309,-103 267.309,-13 267.309,-13 267.309,-7 273.309,-1 279.309,-1"/>
<text text-anchor="middle" x="335" y="-99.8" font-family="Times,serif" font-size="14.00">Timestamp</text>
<polyline fill="none" stroke="black" points="267.309,-93 402.691,-93 "/>
<text text-anchor="start" x="275.309" y="-77.8" font-family="Times,serif" font-size="14.00">_id :BSON::ObjectId</text>
<text text-anchor="start" x="275.309" y="-63.8" font-family="Times,serif" font-size="14.00">created_at :Time</text>
<text text-anchor="start" x="275.309" y="-49.8" font-family="Times,serif" font-size="14.00">name :Symbol</text>
<text text-anchor="start" x="275.309" y="-35.8" font-family="Times,serif" font-size="14.00">state :Symbol</text>
<text text-anchor="start" x="275.309" y="-21.8" font-family="Times,serif" font-size="14.00">timestamp :Time</text>
<text text-anchor="start" x="275.309" y="-7.8" font-family="Times,serif" font-size="14.00">updated_at :Time</text>
</g>
<!-- Order&#45;&gt;Timestamp -->
<g id="edge3" class="edge"><title>Order&#45;&gt;Timestamp</title>
<path fill="none" stroke="#5ecfa6" d="M372.198,-145.38C368.588,-138.294 365.035,-131.199 361.639,-124.292"/>
<ellipse fill="none" stroke="#5ecfa6" cx="374.025" cy="-148.945" rx="4.00002" ry="4.00002"/>
<polygon fill="#5ecfa6" stroke="#5ecfa6" points="361.495,-123.996 361.16,-113.036 359.305,-119.501 357.115,-115.007 357.115,-115.007 357.115,-115.007 359.305,-119.501 353.07,-116.978 361.495,-123.996 361.495,-123.996"/>
</g>
<!-- Transaction -->
<g id="node7" class="node"><title>Transaction</title>
<path fill="none" stroke="black" d="M432.543,-1C432.543,-1 587.457,-1 587.457,-1 593.457,-1 599.457,-7 599.457,-13 599.457,-13 599.457,-103 599.457,-103 599.457,-109 593.457,-115 587.457,-115 587.457,-115 432.543,-115 432.543,-115 426.543,-115 420.543,-109 420.543,-103 420.543,-103 420.543,-13 420.543,-13 420.543,-7 426.543,-1 432.543,-1"/>
<text text-anchor="middle" x="510" y="-99.8" font-family="Times,serif" font-size="14.00">Transaction</text>
<polyline fill="none" stroke="black" points="420.543,-93 599.457,-93 "/>
<text text-anchor="start" x="428.543" y="-77.8" font-family="Times,serif" font-size="14.00">_id :BSON::ObjectId</text>
<text text-anchor="start" x="428.543" y="-63.8" font-family="Times,serif" font-size="14.00">account_id :BSON::ObjectId</text>
<text text-anchor="start" x="428.543" y="-49.8" font-family="Times,serif" font-size="14.00">created_at :Time</text>
<text text-anchor="start" x="428.543" y="-35.8" font-family="Times,serif" font-size="14.00">state :Symbol</text>
<text text-anchor="start" x="428.543" y="-21.8" font-family="Times,serif" font-size="14.00">type :Symbol</text>
<text text-anchor="start" x="428.543" y="-7.8" font-family="Times,serif" font-size="14.00">updated_at :Time</text>
</g>
<!-- Order&#45;&gt;Transaction -->
<g id="edge2" class="edge"><title>Order&#45;&gt;Transaction</title>
<path fill="none" stroke="#f1d3a4" d="M458.798,-145.38C462.522,-138.132 466.315,-130.877 470.07,-123.821"/>
<ellipse fill="none" stroke="#f1d3a4" cx="456.977" cy="-148.943" rx="4.00002" ry="4.00002"/>
<polygon fill="#f1d3a4" stroke="#f1d3a4" points="470.071,-123.819 478.764,-117.134 472.435,-119.413 474.798,-115.007 474.798,-115.007 474.798,-115.007 472.435,-119.413 470.833,-112.88 470.071,-123.819 470.071,-123.819"/>
</g>
<!-- Stock -->
<g id="node4" class="node"><title>Stock</title>
<path fill="none" stroke="black" d="M366.309,-347C366.309,-347 477.691,-347 477.691,-347 483.691,-347 489.691,-353 489.691,-359 489.691,-359 489.691,-449 489.691,-449 489.691,-455 483.691,-461 477.691,-461 477.691,-461 366.309,-461 366.309,-461 360.309,-461 354.309,-455 354.309,-449 354.309,-449 354.309,-359 354.309,-359 354.309,-353 360.309,-347 366.309,-347"/>
<text text-anchor="middle" x="422" y="-445.8" font-family="Times,serif" font-size="14.00">Stock</text>
<polyline fill="none" stroke="black" points="354.309,-439 489.691,-439 "/>
<text text-anchor="start" x="362.309" y="-423.8" font-family="Times,serif" font-size="14.00">_id :BSON::ObjectId</text>
<text text-anchor="start" x="362.309" y="-409.8" font-family="Times,serif" font-size="14.00">created_at :Time</text>
<text text-anchor="start" x="362.309" y="-395.8" font-family="Times,serif" font-size="14.00">ref_id :String</text>
<text text-anchor="start" x="362.309" y="-381.8" font-family="Times,serif" font-size="14.00">symbol :Symbol</text>
<text text-anchor="start" x="362.309" y="-367.8" font-family="Times,serif" font-size="14.00">total_shares :Integer</text>
<text text-anchor="start" x="362.309" y="-353.8" font-family="Times,serif" font-size="14.00">updated_at :Time</text>
</g>
<!-- Stock&#45;&gt;Order -->
<g id="edge4" class="edge"><title>Stock&#45;&gt;Order</title>
<path fill="none" stroke="#f9a439" d="M422,-338.282C422,-332.039 422,-325.639 422,-319.226"/>
<ellipse fill="none" stroke="#f9a439" cx="422" cy="-342.534" rx="4" ry="4"/>
<polygon fill="#f9a439" stroke="#f9a439" points="422,-319.159 426.5,-309.159 422,-314.159 422,-309.159 422,-309.159 422,-309.159 422,-314.159 417.5,-309.159 422,-319.159 422,-319.159"/>
</g>
<!-- StockHolding&#45;&gt;Account -->
<g id="edge5" class="edge"><title>StockHolding&#45;&gt;Account</title>
<path fill="none" stroke="#7f9a5d" d="M268.461,-291.36C268.848,-308.345 268.846,-326.853 268.457,-343.827"/>
<polygon fill="#7f9a5d" stroke="#7f9a5d" points="268.452,-291.005 272.669,-280.883 268.311,-286.007 268.171,-281.009 268.171,-281.009 268.171,-281.009 268.311,-286.007 263.673,-281.135 268.452,-291.005 268.452,-291.005"/>
<polygon fill="#7f9a5d" stroke="#7f9a5d" points="268.452,-344.002 263.672,-353.872 268.311,-349 268.171,-353.998 268.171,-353.998 268.171,-353.998 268.311,-349 272.669,-354.125 268.452,-344.002 268.452,-344.002"/>
</g>
<!-- Timestamp&#45;&gt;Order -->
<g id="edge6" class="edge"><title>Timestamp&#45;&gt;Order</title>
<path fill="none" stroke="#bf1e93" d="M374.696,-124.097C378.007,-130.39 381.346,-136.84 384.638,-143.298"/>
<polygon fill="#bf1e93" stroke="#bf1e93" points="374.56,-123.841 373.85,-112.898 372.217,-119.424 369.874,-115.007 369.874,-115.007 369.874,-115.007 372.217,-119.424 365.899,-117.115 374.56,-123.841 374.56,-123.841"/>
<polygon fill="#bf1e93" stroke="#bf1e93" points="384.782,-143.582 385.281,-154.537 387.039,-148.044 389.296,-152.505 389.296,-152.505 389.296,-152.505 387.039,-148.044 393.312,-150.474 384.782,-143.582 384.782,-143.582"/>
</g>
<!-- Transaction&#45;&gt;Order -->
<g id="edge7" class="edge"><title>Transaction&#45;&gt;Order</title>
<path fill="none" stroke="#bbb325" d="M483.029,-124.192C479.866,-130.552 476.568,-137.07 473.215,-143.596"/>
<polygon fill="#bbb325" stroke="#bbb325" points="483.135,-123.976 491.594,-116.997 485.346,-119.491 487.557,-115.007 487.557,-115.007 487.557,-115.007 485.346,-119.491 483.521,-113.017 483.135,-123.976 483.135,-123.976"/>
<polygon fill="#bbb325" stroke="#bbb325" points="473.2,-143.624 464.608,-150.437 470.902,-148.065 468.604,-152.505 468.604,-152.505 468.604,-152.505 470.902,-148.065 472.6,-154.574 473.2,-143.624 473.2,-143.624"/>
</g>
</g>
</svg>
