<?xml version="1.0" encoding="UTF-8" standalone="no"?>
<!DOCTYPE svg PUBLIC "-//W3C//DTD SVG 1.1//EN"
 "http://www.w3.org/Graphics/SVG/1.1/DTD/svg11.dtd">
<!-- Generated by graphviz version 2.38.0 (20140413.2041)
 -->
<!-- Title: models_diagram Pages: 1 -->
<svg width="710pt" height="428pt"
 viewBox="0.00 0.00 710.26 428.00" xmlns="http://www.w3.org/2000/svg" xmlns:xlink="http://www.w3.org/1999/xlink">
<g id="graph0" class="graph" transform="scale(1 1) rotate(0) translate(4 424)">
<title>models_diagram</title>
<polygon fill="white" stroke="none" points="-4,4 -4,-424 706.264,-424 706.264,4 -4,4"/>
<!-- _diagram_info -->
<g id="node1" class="node"><title>_diagram_info</title>
<text text-anchor="start" x="8" y="-405.6" font-family="Times,serif" font-size="13.00">Models diagram</text>
<text text-anchor="start" x="8" y="-392.6" font-family="Times,serif" font-size="13.00">Date: Aug 20 2014 &#45; 13:38</text>
<text text-anchor="start" x="8" y="-379.6" font-family="Times,serif" font-size="13.00">Generated by RailRoady 1.1.1</text>
<text text-anchor="start" x="8" y="-366.6" font-family="Times,serif" font-size="13.00">http://railroady.prestonlee.com</text>
</g>
<!-- Allocation -->
<g id="node2" class="node"><title>Allocation</title>
<ellipse fill="none" stroke="black" cx="77.7202" cy="-306" rx="47.3736" ry="18"/>
<text text-anchor="middle" x="77.7202" y="-301.8" font-family="Times,serif" font-size="14.00">Allocation</text>
</g>
<!-- Entitlement -->
<g id="node7" class="node"><title>Entitlement</title>
<ellipse fill="none" stroke="black" cx="77.7202" cy="-234" rx="51.2329" ry="18"/>
<text text-anchor="middle" x="77.7202" y="-229.8" font-family="Times,serif" font-size="14.00">Entitlement</text>
</g>
<!-- Allocation&#45;&gt;Entitlement -->
<g id="edge1" class="edge"><title>Allocation&#45;&gt;Entitlement</title>
<path fill="none" stroke="#d561d7" d="M71.1297,-278.005C70.9219,-272.873 70.9172,-267.499 71.1154,-262.355"/>
<polygon fill="#d561d7" stroke="#d561d7" points="71.1349,-278.08 67.3532,-288.373 71.4884,-283.067 71.842,-288.055 71.842,-288.055 71.842,-288.055 71.4884,-283.067 76.3307,-287.737 71.1349,-278.08 71.1349,-278.08"/>
<polygon fill="#d561d7" stroke="#d561d7" points="71.1224,-262.252 76.2968,-252.584 71.4649,-257.264 71.8074,-252.275 71.8074,-252.275 71.8074,-252.275 71.4649,-257.264 67.318,-251.967 71.1224,-262.252 71.1224,-262.252"/>
</g>
<!-- Client -->
<g id="node3" class="node"><title>Client</title>
<ellipse fill="none" stroke="black" cx="224.72" cy="-390" rx="31.948" ry="18"/>
<text text-anchor="middle" x="224.72" y="-385.8" font-family="Times,serif" font-size="14.00">Client</text>
</g>
<!-- TransactionAccount -->
<g id="node18" class="node"><title>TransactionAccount</title>
<ellipse fill="none" stroke="black" cx="224.72" cy="-306" rx="81.5045" ry="18"/>
<text text-anchor="middle" x="224.72" y="-301.8" font-family="Times,serif" font-size="14.00">TransactionAccount</text>
</g>
<!-- Client&#45;&gt;TransactionAccount -->
<g id="edge2" class="edge"><title>Client&#45;&gt;TransactionAccount</title>
<path fill="none" stroke="#6a457d" d="M224.72,-363.583C224.72,-354.254 224.72,-343.661 224.72,-334.184"/>
<ellipse fill="none" stroke="#6a457d" cx="224.72" cy="-367.61" rx="4" ry="4"/>
<polygon fill="#6a457d" stroke="#6a457d" points="224.72,-334.084 229.22,-324.084 224.72,-329.084 224.72,-324.084 224.72,-324.084 224.72,-324.084 224.72,-329.084 220.22,-324.084 224.72,-334.084 224.72,-334.084"/>
</g>
<!-- DeemedValue -->
<g id="node4" class="node"><title>DeemedValue</title>
<ellipse fill="none" stroke="black" cx="321.72" cy="-234" rx="59.9097" ry="18"/>
<text text-anchor="middle" x="321.72" y="-229.8" font-family="Times,serif" font-size="14.00">DeemedValue</text>
</g>
<!-- DvPositionPoint -->
<g id="node6" class="node"><title>DvPositionPoint</title>
<ellipse fill="none" stroke="black" cx="321.72" cy="-162" rx="68.6738" ry="18"/>
<text text-anchor="middle" x="321.72" y="-157.8" font-family="Times,serif" font-size="14.00">DvPositionPoint</text>
</g>
<!-- DeemedValue&#45;&gt;DvPositionPoint -->
<g id="edge3" class="edge"><title>DeemedValue&#45;&gt;DvPositionPoint</title>
<path fill="none" stroke="#4a4a92" d="M315.221,-207.987C314.926,-202.249 314.891,-196.121 315.118,-190.293"/>
<ellipse fill="none" stroke="#4a4a92" cx="315.535" cy="-212.067" rx="4" ry="4"/>
<polygon fill="#4a4a92" stroke="#4a4a92" points="315.121,-190.252 320.297,-180.584 315.464,-185.263 315.807,-180.275 315.807,-180.275 315.807,-180.275 315.464,-185.263 311.318,-179.966 315.121,-190.252 315.121,-190.252"/>
</g>
<!-- DeemedValueRef -->
<g id="node5" class="node"><title>DeemedValueRef</title>
<ellipse fill="none" stroke="black" cx="346.72" cy="-390" rx="72.4462" ry="18"/>
<text text-anchor="middle" x="346.72" y="-385.8" font-family="Times,serif" font-size="14.00">DeemedValueRef</text>
</g>
<!-- DvPositionPoint&#45;&gt;DeemedValue -->
<g id="edge4" class="edge"><title>DvPositionPoint&#45;&gt;DeemedValue</title>
<path fill="none" stroke="#20174d" d="M328.325,-190.355C328.523,-195.499 328.519,-200.873 328.311,-206.005"/>
<polygon fill="#20174d" stroke="#20174d" points="328.318,-190.252 332.122,-179.967 327.976,-185.264 327.633,-180.275 327.633,-180.275 327.633,-180.275 327.976,-185.264 323.144,-180.584 328.318,-190.252 328.318,-190.252"/>
<polygon fill="#20174d" stroke="#20174d" points="328.306,-206.08 323.11,-215.737 327.952,-211.067 327.598,-216.055 327.598,-216.055 327.598,-216.055 327.952,-211.067 332.087,-216.373 328.306,-206.08 328.306,-206.08"/>
</g>
<!-- Entitlement&#45;&gt;Allocation -->
<g id="edge5" class="edge"><title>Entitlement&#45;&gt;Allocation</title>
<path fill="none" stroke="#481005" d="M84.2362,-260.338C84.521,-266.08 84.5458,-272.198 84.3108,-278.005"/>
<ellipse fill="none" stroke="#481005" cx="83.9315" cy="-256.264" rx="4" ry="4"/>
<polygon fill="#481005" stroke="#481005" points="84.3056,-278.08 79.1097,-287.737 83.952,-283.067 83.5984,-288.055 83.5984,-288.055 83.5984,-288.055 83.952,-283.067 88.0872,-288.373 84.3056,-278.08 84.3056,-278.08"/>
</g>
<!-- Feed -->
<g id="node8" class="node"><title>Feed</title>
<ellipse fill="none" stroke="black" cx="464.72" cy="-390" rx="27.0958" ry="18"/>
<text text-anchor="middle" x="464.72" y="-385.8" font-family="Times,serif" font-size="14.00">Feed</text>
</g>
<!-- HarvestEntry -->
<g id="node9" class="node"><title>HarvestEntry</title>
<ellipse fill="none" stroke="black" cx="465.72" cy="-162" rx="57.0133" ry="18"/>
<text text-anchor="middle" x="465.72" y="-157.8" font-family="Times,serif" font-size="14.00">HarvestEntry</text>
</g>
<!-- HarvestReturn -->
<g id="node10" class="node"><title>HarvestReturn</title>
<ellipse fill="none" stroke="black" cx="465.72" cy="-234" rx="61.8563" ry="18"/>
<text text-anchor="middle" x="465.72" y="-229.8" font-family="Times,serif" font-size="14.00">HarvestReturn</text>
</g>
<!-- HarvestEntry&#45;&gt;HarvestReturn -->
<g id="edge6" class="edge"><title>HarvestEntry&#45;&gt;HarvestReturn</title>
<path fill="none" stroke="#8c06fa" d="M472.325,-190.355C472.523,-195.499 472.519,-200.873 472.311,-206.005"/>
<polygon fill="#8c06fa" stroke="#8c06fa" points="472.318,-190.252 476.122,-179.967 471.976,-185.264 471.633,-180.275 471.633,-180.275 471.633,-180.275 471.976,-185.264 467.144,-180.584 472.318,-190.252 472.318,-190.252"/>
<polygon fill="#8c06fa" stroke="#8c06fa" points="472.306,-206.08 467.11,-215.737 471.952,-211.067 471.598,-216.055 471.598,-216.055 471.598,-216.055 471.952,-211.067 476.087,-216.373 472.306,-206.08 472.306,-206.08"/>
</g>
<!-- HarvestReturn&#45;&gt;HarvestEntry -->
<g id="edge7" class="edge"><title>HarvestReturn&#45;&gt;HarvestEntry</title>
<path fill="none" stroke="#e3125c" d="M459.221,-207.987C458.926,-202.249 458.891,-196.121 459.118,-190.293"/>
<ellipse fill="none" stroke="#e3125c" cx="459.535" cy="-212.067" rx="4" ry="4"/>
<polygon fill="#e3125c" stroke="#e3125c" points="459.121,-190.252 464.297,-180.584 459.464,-185.263 459.807,-180.275 459.807,-180.275 459.807,-180.275 459.464,-185.263 455.318,-179.966 459.121,-190.252 459.121,-190.252"/>
</g>
<!-- Timestamp -->
<g id="node16" class="node"><title>Timestamp</title>
<ellipse fill="none" stroke="black" cx="590.72" cy="-162" rx="49.6745" ry="18"/>
<text text-anchor="middle" x="590.72" y="-157.8" font-family="Times,serif" font-size="14.00">Timestamp</text>
</g>
<!-- HarvestReturn&#45;&gt;Timestamp -->
<g id="edge8" class="edge"><title>HarvestReturn&#45;&gt;Timestamp</title>
<path fill="none" stroke="#284adc" d="M499.869,-213.877C517.351,-204.087 538.589,-192.194 556.133,-182.369"/>
<ellipse fill="none" stroke="#284adc" cx="496.333" cy="-215.857" rx="4.00002" ry="4.00002"/>
<polygon fill="#284adc" stroke="#284adc" points="556.206,-182.328 567.13,-181.368 560.569,-179.885 564.931,-177.442 564.931,-177.442 564.931,-177.442 560.569,-179.885 562.733,-173.515 556.206,-182.328 556.206,-182.328"/>
</g>
<!-- Holding -->
<g id="node11" class="node"><title>Holding</title>
<ellipse fill="none" stroke="black" cx="204.72" cy="-234" rx="39.1887" ry="18"/>
<text text-anchor="middle" x="204.72" y="-229.8" font-family="Times,serif" font-size="14.00">Holding</text>
</g>
<!-- Holding&#45;&gt;TransactionAccount -->
<g id="edge9" class="edge"><title>Holding&#45;&gt;TransactionAccount</title>
<path fill="none" stroke="#af600c" d="M218.836,-261.423C220.599,-266.777 222.221,-272.416 223.547,-277.796"/>
<polygon fill="#af600c" stroke="#af600c" points="218.696,-261.033 219.548,-250.1 217.004,-256.328 215.313,-251.622 215.313,-251.622 215.313,-251.622 217.004,-256.328 211.078,-253.145 218.696,-261.033 218.696,-261.033"/>
<polygon fill="#af600c" stroke="#af600c" points="223.574,-277.923 221.294,-288.65 224.633,-282.81 225.692,-287.697 225.692,-287.697 225.692,-287.697 224.633,-282.81 230.09,-286.744 223.574,-277.923 223.574,-277.923"/>
</g>
<!-- Order -->
<g id="node12" class="node"><title>Order</title>
<ellipse fill="none" stroke="black" cx="590.72" cy="-90" rx="30.9619" ry="18"/>
<text text-anchor="middle" x="590.72" y="-85.8" font-family="Times,serif" font-size="14.00">Order</text>
</g>
<!-- StockEntry -->
<g id="node14" class="node"><title>StockEntry</title>
<ellipse fill="none" stroke="black" cx="531.72" cy="-18" rx="49.7964" ry="18"/>
<text text-anchor="middle" x="531.72" y="-13.8" font-family="Times,serif" font-size="14.00">StockEntry</text>
</g>
<!-- Order&#45;&gt;StockEntry -->
<g id="edge10" class="edge"><title>Order&#45;&gt;StockEntry</title>
<path fill="none" stroke="#482554" d="M567.661,-68.9611C560.47,-61.1901 552.788,-52.207 546.308,-44.0192"/>
<ellipse fill="none" stroke="#482554" cx="570.479" cy="-71.9322" rx="4.00002" ry="4.00002"/>
<polygon fill="#482554" stroke="#482554" points="546.139,-43.799 543.634,-33.1232 543.1,-39.8288 540.061,-35.8586 540.061,-35.8586 540.061,-35.8586 543.1,-39.8288 536.487,-38.5941 546.139,-43.799 546.139,-43.799"/>
</g>
<!-- Order&#45;&gt;Timestamp -->
<g id="edge12" class="edge"><title>Order&#45;&gt;Timestamp</title>
<path fill="none" stroke="#d1a692" d="M597.215,-115.926C597.517,-121.735 597.551,-127.948 597.317,-133.848"/>
<ellipse fill="none" stroke="#d1a692" cx="596.892" cy="-111.777" rx="4" ry="4"/>
<polygon fill="#d1a692" stroke="#d1a692" points="597.301,-134.08 592.11,-143.739 596.95,-139.067 596.598,-144.055 596.598,-144.055 596.598,-144.055 596.95,-139.067 601.087,-144.371 597.301,-134.08 597.301,-134.08"/>
</g>
<!-- Transaction -->
<g id="node17" class="node"><title>Transaction</title>
<ellipse fill="none" stroke="black" cx="650.72" cy="-18" rx="51.5866" ry="18"/>
<text text-anchor="middle" x="650.72" y="-13.8" font-family="Times,serif" font-size="14.00">Transaction</text>
</g>
<!-- Order&#45;&gt;Transaction -->
<g id="edge11" class="edge"><title>Order&#45;&gt;Transaction</title>
<path fill="none" stroke="#80b92e" d="M604.048,-66.0031C610.092,-58.3896 617.351,-49.9138 624.365,-42.2792"/>
<ellipse fill="none" stroke="#80b92e" cx="601.544" cy="-69.2451" rx="4.00002" ry="4.00002"/>
<polygon fill="#80b92e" stroke="#80b92e" points="624.381,-42.2621 634.517,-38.0761 627.812,-38.6251 631.243,-34.9881 631.243,-34.9881 631.243,-34.9881 627.812,-38.6251 627.97,-31.9001 624.381,-42.2621 624.381,-42.2621"/>
</g>
<!-- Stock -->
<g id="node13" class="node"><title>Stock</title>
<ellipse fill="none" stroke="black" cx="204.72" cy="-162" rx="30.0035" ry="18"/>
<text text-anchor="middle" x="204.72" y="-157.8" font-family="Times,serif" font-size="14.00">Stock</text>
</g>
<!-- Stock&#45;&gt;Order -->
<g id="edge13" class="edge"><title>Stock&#45;&gt;Order</title>
<path fill="none" stroke="#9d052a" d="M235.018,-146.897C237.924,-145.818 240.855,-144.828 243.72,-144 351.587,-112.829 483.926,-99.073 549.639,-93.8107"/>
<ellipse fill="none" stroke="#9d052a" cx="231.166" cy="-148.434" rx="4.00001" ry="4.00001"/>
<polygon fill="#9d052a" stroke="#9d052a" points="550.009,-93.7821 560.327,-97.4958 554.994,-93.3957 559.979,-93.0093 559.979,-93.0093 559.979,-93.0093 554.994,-93.3957 559.631,-88.5227 550.009,-93.7821 550.009,-93.7821"/>
</g>
<!-- StockEntry&#45;&gt;Order -->
<g id="edge14" class="edge"><title>StockEntry&#45;&gt;Order</title>
<path fill="none" stroke="#c43fa6" d="M558.162,-42.7438C564.41,-49.6723 570.823,-57.2594 576.344,-64.2486"/>
<polygon fill="#c43fa6" stroke="#c43fa6" points="557.769,-42.3198 554.268,-31.9279 554.369,-38.654 550.969,-34.9881 550.969,-34.9881 550.969,-34.9881 554.369,-38.654 547.669,-38.0484 557.769,-42.3198 557.769,-42.3198"/>
<polygon fill="#c43fa6" stroke="#c43fa6" points="576.508,-64.4636 579.002,-75.1423 579.543,-68.4373 582.578,-72.411 582.578,-72.411 582.578,-72.411 579.543,-68.4373 586.154,-69.6797 576.508,-64.4636 576.508,-64.4636"/>
</g>
<!-- TaccRef -->
<g id="node15" class="node"><title>TaccRef</title>
<polygon fill="none" stroke="black" points="573.151,-408 510.289,-408 510.289,-372 573.151,-372 573.151,-408"/>
<text text-anchor="middle" x="541.72" y="-385.8" font-family="Times,serif" font-size="14.00">TaccRef</text>
</g>
<!-- Timestamp&#45;&gt;Order -->
<g id="edge15" class="edge"><title>Timestamp&#45;&gt;Order</title>
<path fill="none" stroke="#462cb1" d="M584.123,-133.848C583.917,-128.634 583.919,-123.176 584.131,-117.968"/>
<polygon fill="#462cb1" stroke="#462cb1" points="584.14,-134.08 580.353,-144.371 584.491,-139.067 584.842,-144.055 584.842,-144.055 584.842,-144.055 584.491,-139.067 589.331,-143.739 584.14,-134.08 584.14,-134.08"/>
<polygon fill="#462cb1" stroke="#462cb1" points="584.145,-117.764 589.347,-108.11 584.502,-112.776 584.859,-107.789 584.859,-107.789 584.859,-107.789 584.502,-112.776 580.37,-107.468 584.145,-117.764 584.145,-117.764"/>
</g>
<!-- Transaction&#45;&gt;Order -->
<g id="edge16" class="edge"><title>Transaction&#45;&gt;Order</title>
<path fill="none" stroke="#fe4a90" d="M635.898,-43.867C629.689,-51.5807 622.392,-60.013 615.45,-67.4793"/>
<polygon fill="#fe4a90" stroke="#fe4a90" points="635.992,-43.7461 645.688,-38.6248 639.065,-39.8024 642.139,-35.8586 642.139,-35.8586 642.139,-35.8586 639.065,-39.8024 638.59,-33.0924 635.992,-43.7461 635.992,-43.7461"/>
<polygon fill="#fe4a90" stroke="#fe4a90" points="615.325,-67.6101 605.16,-71.723 611.868,-71.2223 608.411,-74.8345 608.411,-74.8345 608.411,-74.8345 611.868,-71.2223 611.662,-77.9459 615.325,-67.6101 615.325,-67.6101"/>
</g>
<!-- TransactionAccount&#45;&gt;DeemedValue -->
<g id="edge20" class="edge"><title>TransactionAccount&#45;&gt;DeemedValue</title>
<path fill="none" stroke="#2b9bb2" d="M254.198,-283.728C265.942,-275.252 279.455,-265.501 291.292,-256.959"/>
<ellipse fill="none" stroke="#2b9bb2" cx="250.951" cy="-286.07" rx="4.00002" ry="4.00002"/>
<polygon fill="#2b9bb2" stroke="#2b9bb2" points="291.456,-256.84 302.199,-254.637 295.511,-253.914 299.565,-250.988 299.565,-250.988 299.565,-250.988 295.511,-253.914 296.932,-247.339 291.456,-256.84 291.456,-256.84"/>
</g>
<!-- TransactionAccount&#45;&gt;Entitlement -->
<g id="edge18" class="edge"><title>TransactionAccount&#45;&gt;Entitlement</title>
<path fill="none" stroke="#5fdd94" d="M184.724,-285.954C163.515,-275.855 137.57,-263.5 116.54,-253.486"/>
<ellipse fill="none" stroke="#5fdd94" cx="188.485" cy="-287.745" rx="4.00002" ry="4.00002"/>
<polygon fill="#5fdd94" stroke="#5fdd94" points="116.287,-253.365 109.193,-245.003 111.772,-251.215 107.258,-249.066 107.258,-249.066 107.258,-249.066 111.772,-251.215 105.323,-253.128 116.287,-253.365 116.287,-253.365"/>
</g>
<!-- TransactionAccount&#45;&gt;HarvestReturn -->
<g id="edge19" class="edge"><title>TransactionAccount&#45;&gt;HarvestReturn</title>
<path fill="none" stroke="#daa11b" d="M279.742,-289.019C320.083,-277.301 374.485,-261.5 414.024,-250.016"/>
<ellipse fill="none" stroke="#daa11b" cx="275.888" cy="-290.138" rx="4.00001" ry="4.00001"/>
<polygon fill="#daa11b" stroke="#daa11b" points="414.135,-249.983 424.993,-251.515 418.936,-248.589 423.738,-247.194 423.738,-247.194 423.738,-247.194 418.936,-248.589 422.483,-242.873 414.135,-249.983 414.135,-249.983"/>
</g>
<!-- TransactionAccount&#45;&gt;Holding -->
<g id="edge17" class="edge"><title>TransactionAccount&#45;&gt;Holding</title>
<path fill="none" stroke="#8bed8b" d="M211.169,-280.267C209.21,-274.485 207.4,-268.291 205.942,-262.4"/>
<ellipse fill="none" stroke="#8bed8b" cx="212.634" cy="-284.296" rx="4.00001" ry="4.00001"/>
<polygon fill="#8bed8b" stroke="#8bed8b" points="205.866,-262.047 208.141,-251.32 204.804,-257.161 203.743,-252.275 203.743,-252.275 203.743,-252.275 204.804,-257.161 199.346,-253.23 205.866,-262.047 205.866,-262.047"/>
</g>
</g>
</svg>
