<?xml version="1.0" encoding="UTF-8" standalone="no"?>
<!DOCTYPE svg PUBLIC "-//W3C//DTD SVG 1.1//EN"
 "http://www.w3.org/Graphics/SVG/1.1/DTD/svg11.dtd">
<!-- Generated by graphviz version 2.38.0 (20140413.2041)
 -->
<!-- Title: models_diagram Pages: 1 -->
<svg width="990pt" height="1116pt"
 viewBox="0.00 0.00 990.18 1116.00" xmlns="http://www.w3.org/2000/svg" xmlns:xlink="http://www.w3.org/1999/xlink">
<g id="graph0" class="graph" transform="scale(1 1) rotate(0) translate(4 1112)">
<title>models_diagram</title>
<polygon fill="white" stroke="none" points="-4,4 -4,-1112 986.177,-1112 986.177,4 -4,4"/>
<!-- _diagram_info -->
<g id="node1" class="node"><title>_diagram_info</title>
<text text-anchor="start" x="8" y="-1052.1" font-family="Times,serif" font-size="13.00">Models diagram</text>
<text text-anchor="start" x="8" y="-1039.1" font-family="Times,serif" font-size="13.00">Date: Aug 20 2014 &#45; 13:38</text>
<text text-anchor="start" x="8" y="-1026.1" font-family="Times,serif" font-size="13.00">Generated by RailRoady 1.1.1</text>
<text text-anchor="start" x="8" y="-1013.1" font-family="Times,serif" font-size="13.00">http://railroady.prestonlee.com</text>
</g>
<!-- Allocation -->
<g id="node2" class="node"><title>Allocation</title>
<path fill="none" stroke="black" d="M42.353,-772.5C42.353,-772.5 163.087,-772.5 163.087,-772.5 169.087,-772.5 175.087,-778.5 175.087,-784.5 175.087,-784.5 175.087,-916.5 175.087,-916.5 175.087,-922.5 169.087,-928.5 163.087,-928.5 163.087,-928.5 42.353,-928.5 42.353,-928.5 36.353,-928.5 30.353,-922.5 30.353,-916.5 30.353,-916.5 30.353,-784.5 30.353,-784.5 30.353,-778.5 36.353,-772.5 42.353,-772.5"/>
<text text-anchor="middle" x="102.72" y="-913.3" font-family="Times,serif" font-size="14.00">Allocation</text>
<polyline fill="none" stroke="black" points="30.353,-906.5 175.087,-906.5 "/>
<text text-anchor="start" x="38.353" y="-891.3" font-family="Times,serif" font-size="14.00">_id :BSON::ObjectId</text>
<text text-anchor="start" x="38.353" y="-877.3" font-family="Times,serif" font-size="14.00">assigned_time :Time</text>
<text text-anchor="start" x="38.353" y="-863.3" font-family="Times,serif" font-size="14.00">balance :Integer</text>
<text text-anchor="start" x="38.353" y="-849.3" font-family="Times,serif" font-size="14.00">created_at :Time</text>
<text text-anchor="start" x="38.353" y="-835.3" font-family="Times,serif" font-size="14.00">op :Symbol</text>
<text text-anchor="start" x="38.353" y="-821.3" font-family="Times,serif" font-size="14.00">qty :Integer</text>
<text text-anchor="start" x="38.353" y="-807.3" font-family="Times,serif" font-size="14.00">stock_symbol :Symbol</text>
<text text-anchor="start" x="38.353" y="-793.3" font-family="Times,serif" font-size="14.00">unit :Symbol</text>
<text text-anchor="start" x="38.353" y="-779.3" font-family="Times,serif" font-size="14.00">updated_at :Time</text>
</g>
<!-- Entitlement -->
<g id="node7" class="node"><title>Entitlement</title>
<path fill="none" stroke="black" d="M19.4458,-621.5C19.4458,-621.5 185.995,-621.5 185.995,-621.5 191.995,-621.5 197.995,-627.5 197.995,-633.5 197.995,-633.5 197.995,-709.5 197.995,-709.5 197.995,-715.5 191.995,-721.5 185.995,-721.5 185.995,-721.5 19.4458,-721.5 19.4458,-721.5 13.4458,-721.5 7.4458,-715.5 7.4458,-709.5 7.4458,-709.5 7.4458,-633.5 7.4458,-633.5 7.4458,-627.5 13.4458,-621.5 19.4458,-621.5"/>
<text text-anchor="middle" x="102.72" y="-706.3" font-family="Times,serif" font-size="14.00">Entitlement</text>
<polyline fill="none" stroke="black" points="7.4458,-699.5 197.995,-699.5 "/>
<text text-anchor="start" x="15.4458" y="-684.3" font-family="Times,serif" font-size="14.00">_id :BSON::ObjectId</text>
<text text-anchor="start" x="15.4458" y="-670.3" font-family="Times,serif" font-size="14.00">created_at :Time</text>
<text text-anchor="start" x="15.4458" y="-656.3" font-family="Times,serif" font-size="14.00">period :Date</text>
<text text-anchor="start" x="15.4458" y="-642.3" font-family="Times,serif" font-size="14.00">transaction_account_id :Object</text>
<text text-anchor="start" x="15.4458" y="-628.3" font-family="Times,serif" font-size="14.00">updated_at :Time</text>
</g>
<!-- Allocation&#45;&gt;Entitlement -->
<g id="edge1" class="edge"><title>Allocation&#45;&gt;Entitlement</title>
<path fill="none" stroke="#9ae6e9" d="M95.9708,-762.235C95.961,-751.866 96.0747,-741.475 96.3121,-731.63"/>
<polygon fill="#9ae6e9" stroke="#9ae6e9" points="95.9714,-762.38 91.5201,-772.402 95.9957,-767.38 96.0201,-772.38 96.0201,-772.38 96.0201,-772.38 95.9957,-767.38 100.52,-772.358 95.9714,-762.38 95.9714,-762.38"/>
<polygon fill="#9ae6e9" stroke="#9ae6e9" points="96.3132,-731.589 101.102,-721.724 96.4586,-726.591 96.6041,-721.593 96.6041,-721.593 96.6041,-721.593 96.4586,-726.591 92.106,-721.462 96.3132,-731.589 96.3132,-731.589"/>
</g>
<!-- Client -->
<g id="node3" class="node"><title>Client</title>
<path fill="none" stroke="black" d="M205.036,-979.5C205.036,-979.5 372.405,-979.5 372.405,-979.5 378.405,-979.5 384.405,-985.5 384.405,-991.5 384.405,-991.5 384.405,-1081.5 384.405,-1081.5 384.405,-1087.5 378.405,-1093.5 372.405,-1093.5 372.405,-1093.5 205.036,-1093.5 205.036,-1093.5 199.036,-1093.5 193.036,-1087.5 193.036,-1081.5 193.036,-1081.5 193.036,-991.5 193.036,-991.5 193.036,-985.5 199.036,-979.5 205.036,-979.5"/>
<text text-anchor="middle" x="288.72" y="-1078.3" font-family="Times,serif" font-size="14.00">Client</text>
<polyline fill="none" stroke="black" points="193.036,-1071.5 384.405,-1071.5 "/>
<text text-anchor="start" x="201.036" y="-1056.3" font-family="Times,serif" font-size="14.00">_id :BSON::ObjectId</text>
<text text-anchor="start" x="201.036" y="-1042.3" font-family="Times,serif" font-size="14.00">client_name :String</text>
<text text-anchor="start" x="201.036" y="-1028.3" font-family="Times,serif" font-size="14.00">client_number :String</text>
<text text-anchor="start" x="201.036" y="-1014.3" font-family="Times,serif" font-size="14.00">created_at :Time</text>
<text text-anchor="start" x="201.036" y="-1000.3" font-family="Times,serif" font-size="14.00">has_permit :Mongoid::Boolean</text>
<text text-anchor="start" x="201.036" y="-986.3" font-family="Times,serif" font-size="14.00">updated_at :Time</text>
</g>
<!-- TransactionAccount -->
<g id="node18" class="node"><title>TransactionAccount</title>
<path fill="none" stroke="black" d="M233.029,-793.5C233.029,-793.5 344.412,-793.5 344.412,-793.5 350.412,-793.5 356.412,-799.5 356.412,-805.5 356.412,-805.5 356.412,-895.5 356.412,-895.5 356.412,-901.5 350.412,-907.5 344.412,-907.5 344.412,-907.5 233.029,-907.5 233.029,-907.5 227.029,-907.5 221.029,-901.5 221.029,-895.5 221.029,-895.5 221.029,-805.5 221.029,-805.5 221.029,-799.5 227.029,-793.5 233.029,-793.5"/>
<text text-anchor="middle" x="288.72" y="-892.3" font-family="Times,serif" font-size="14.00">TransactionAccount</text>
<polyline fill="none" stroke="black" points="221.029,-885.5 356.412,-885.5 "/>
<text text-anchor="start" x="229.029" y="-870.3" font-family="Times,serif" font-size="14.00">_id :BSON::ObjectId</text>
<text text-anchor="start" x="229.029" y="-856.3" font-family="Times,serif" font-size="14.00">acct_type :Symbol</text>
<text text-anchor="start" x="229.029" y="-842.3" font-family="Times,serif" font-size="14.00">client_id :Object</text>
<text text-anchor="start" x="229.029" y="-828.3" font-family="Times,serif" font-size="14.00">created_at :Time</text>
<text text-anchor="start" x="229.029" y="-814.3" font-family="Times,serif" font-size="14.00">name :String</text>
<text text-anchor="start" x="229.029" y="-800.3" font-family="Times,serif" font-size="14.00">updated_at :Time</text>
</g>
<!-- Client&#45;&gt;TransactionAccount -->
<g id="edge2" class="edge"><title>Client&#45;&gt;TransactionAccount</title>
<path fill="none" stroke="#a70d5c" d="M288.72,-971.175C288.72,-953.879 288.72,-935.145 288.72,-917.747"/>
<ellipse fill="none" stroke="#a70d5c" cx="288.72" cy="-975.294" rx="4" ry="4"/>
<polygon fill="#a70d5c" stroke="#a70d5c" points="288.72,-917.678 293.22,-907.678 288.72,-912.678 288.72,-907.678 288.72,-907.678 288.72,-907.678 288.72,-912.678 284.22,-907.679 288.72,-917.678 288.72,-917.678"/>
</g>
<!-- DeemedValue -->
<g id="node4" class="node"><title>DeemedValue</title>
<path fill="none" stroke="black" d="M391.253,-607.5C391.253,-607.5 532.188,-607.5 532.188,-607.5 538.188,-607.5 544.188,-613.5 544.188,-619.5 544.188,-619.5 544.188,-723.5 544.188,-723.5 544.188,-729.5 538.188,-735.5 532.188,-735.5 532.188,-735.5 391.253,-735.5 391.253,-735.5 385.253,-735.5 379.253,-729.5 379.253,-723.5 379.253,-723.5 379.253,-619.5 379.253,-619.5 379.253,-613.5 385.253,-607.5 391.253,-607.5"/>
<text text-anchor="middle" x="461.72" y="-720.3" font-family="Times,serif" font-size="14.00">DeemedValue</text>
<polyline fill="none" stroke="black" points="379.253,-713.5 544.188,-713.5 "/>
<text text-anchor="start" x="387.253" y="-698.3" font-family="Times,serif" font-size="14.00">_id :BSON::ObjectId</text>
<text text-anchor="start" x="387.253" y="-684.3" font-family="Times,serif" font-size="14.00">account_id :Object</text>
<text text-anchor="start" x="387.253" y="-670.3" font-family="Times,serif" font-size="14.00">created_at :Time</text>
<text text-anchor="start" x="387.253" y="-656.3" font-family="Times,serif" font-size="14.00">period :Date</text>
<text text-anchor="start" x="387.253" y="-642.3" font-family="Times,serif" font-size="14.00">stock_id :BSON::ObjectId</text>
<text text-anchor="start" x="387.253" y="-628.3" font-family="Times,serif" font-size="14.00">stock_symbol :Symbol</text>
<text text-anchor="start" x="387.253" y="-614.3" font-family="Times,serif" font-size="14.00">updated_at :Time</text>
</g>
<!-- DvPositionPoint -->
<g id="node6" class="node"><title>DvPositionPoint</title>
<path fill="none" stroke="black" d="M406.029,-449.5C406.029,-449.5 517.412,-449.5 517.412,-449.5 523.412,-449.5 529.412,-455.5 529.412,-461.5 529.412,-461.5 529.412,-537.5 529.412,-537.5 529.412,-543.5 523.412,-549.5 517.412,-549.5 517.412,-549.5 406.029,-549.5 406.029,-549.5 400.029,-549.5 394.029,-543.5 394.029,-537.5 394.029,-537.5 394.029,-461.5 394.029,-461.5 394.029,-455.5 400.029,-449.5 406.029,-449.5"/>
<text text-anchor="middle" x="461.72" y="-534.3" font-family="Times,serif" font-size="14.00">DvPositionPoint</text>
<polyline fill="none" stroke="black" points="394.029,-527.5 529.412,-527.5 "/>
<text text-anchor="start" x="402.029" y="-512.3" font-family="Times,serif" font-size="14.00">_id :BSON::ObjectId</text>
<text text-anchor="start" x="402.029" y="-498.3" font-family="Times,serif" font-size="14.00">created_at :Time</text>
<text text-anchor="start" x="402.029" y="-484.3" font-family="Times,serif" font-size="14.00">qty :Integer</text>
<text text-anchor="start" x="402.029" y="-470.3" font-family="Times,serif" font-size="14.00">updated_at :Time</text>
<text text-anchor="start" x="402.029" y="-456.3" font-family="Times,serif" font-size="14.00">value_cents :Integer</text>
</g>
<!-- DeemedValue&#45;&gt;DvPositionPoint -->
<g id="edge3" class="edge"><title>DeemedValue&#45;&gt;DvPositionPoint</title>
<path fill="none" stroke="#45838f" d="M455.047,-599.073C454.897,-585.9 454.967,-572.282 455.258,-559.526"/>
<ellipse fill="none" stroke="#45838f" cx="455.109" cy="-603.199" rx="4" ry="4"/>
<polygon fill="#45838f" stroke="#45838f" points="455.259,-559.503 460.038,-549.633 455.399,-554.505 455.54,-549.507 455.54,-549.507 455.54,-549.507 455.399,-554.505 451.041,-549.381 455.259,-559.503 455.259,-559.503"/>
</g>
<!-- DeemedValueRef -->
<g id="node5" class="node"><title>DeemedValueRef</title>
<path fill="none" stroke="black" d="M414.415,-965.5C414.415,-965.5 567.025,-965.5 567.025,-965.5 573.025,-965.5 579.025,-971.5 579.025,-977.5 579.025,-977.5 579.025,-1095.5 579.025,-1095.5 579.025,-1101.5 573.025,-1107.5 567.025,-1107.5 567.025,-1107.5 414.415,-1107.5 414.415,-1107.5 408.415,-1107.5 402.415,-1101.5 402.415,-1095.5 402.415,-1095.5 402.415,-977.5 402.415,-977.5 402.415,-971.5 408.415,-965.5 414.415,-965.5"/>
<text text-anchor="middle" x="490.72" y="-1092.3" font-family="Times,serif" font-size="14.00">DeemedValueRef</text>
<polyline fill="none" stroke="black" points="402.415,-1085.5 579.025,-1085.5 "/>
<text text-anchor="start" x="410.415" y="-1070.3" font-family="Times,serif" font-size="14.00">_id :BSON::ObjectId</text>
<text text-anchor="start" x="410.415" y="-1056.3" font-family="Times,serif" font-size="14.00">created_at :Time</text>
<text text-anchor="start" x="410.415" y="-1042.3" font-family="Times,serif" font-size="14.00">interim_dv_cents :Integer</text>
<text text-anchor="start" x="410.415" y="-1028.3" font-family="Times,serif" font-size="14.00">symbol :Symbol</text>
<text text-anchor="start" x="410.415" y="-1014.3" font-family="Times,serif" font-size="14.00">symbol_id :BSON::ObjectId</text>
<text text-anchor="start" x="410.415" y="-1000.3" font-family="Times,serif" font-size="14.00">updated_at :Time</text>
<text text-anchor="start" x="410.415" y="-986.3" font-family="Times,serif" font-size="14.00">valid_from :Date</text>
<text text-anchor="start" x="410.415" y="-972.3" font-family="Times,serif" font-size="14.00">valid_to :Date</text>
</g>
<!-- DvPositionPoint&#45;&gt;DeemedValue -->
<g id="edge4" class="edge"><title>DvPositionPoint&#45;&gt;DeemedValue</title>
<path fill="none" stroke="#ddcf6d" d="M468.188,-559.785C468.458,-571.73 468.534,-584.423 468.417,-596.792"/>
<polygon fill="#ddcf6d" stroke="#ddcf6d" points="468.18,-559.503 472.399,-549.381 468.04,-554.505 467.901,-549.507 467.901,-549.507 467.901,-549.507 468.04,-554.505 463.402,-549.633 468.18,-559.503 468.18,-559.503"/>
<polygon fill="#ddcf6d" stroke="#ddcf6d" points="468.411,-597.199 463.771,-607.135 468.341,-602.199 468.271,-607.198 468.271,-607.198 468.271,-607.198 468.341,-602.199 472.77,-607.262 468.411,-597.199 468.411,-597.199"/>
</g>
<!-- Entitlement&#45;&gt;Allocation -->
<g id="edge5" class="edge"><title>Entitlement&#45;&gt;Allocation</title>
<path fill="none" stroke="#7c456d" d="M109.082,-729.772C109.351,-740.162 109.48,-751.211 109.47,-762.235"/>
<ellipse fill="none" stroke="#7c456d" cx="108.956" cy="-725.591" rx="4" ry="4"/>
<polygon fill="#7c456d" stroke="#7c456d" points="109.469,-762.38 104.92,-772.358 109.445,-767.38 109.42,-772.38 109.42,-772.38 109.42,-772.38 109.445,-767.38 113.92,-772.402 109.469,-762.38 109.469,-762.38"/>
</g>
<!-- Feed -->
<g id="node8" class="node"><title>Feed</title>
<path fill="none" stroke="black" d="M609.029,-979.5C609.029,-979.5 720.412,-979.5 720.412,-979.5 726.412,-979.5 732.412,-985.5 732.412,-991.5 732.412,-991.5 732.412,-1081.5 732.412,-1081.5 732.412,-1087.5 726.412,-1093.5 720.412,-1093.5 720.412,-1093.5 609.029,-1093.5 609.029,-1093.5 603.029,-1093.5 597.029,-1087.5 597.029,-1081.5 597.029,-1081.5 597.029,-991.5 597.029,-991.5 597.029,-985.5 603.029,-979.5 609.029,-979.5"/>
<text text-anchor="middle" x="664.72" y="-1078.3" font-family="Times,serif" font-size="14.00">Feed</text>
<polyline fill="none" stroke="black" points="597.029,-1071.5 732.412,-1071.5 "/>
<text text-anchor="start" x="605.029" y="-1056.3" font-family="Times,serif" font-size="14.00">_id :BSON::ObjectId</text>
<text text-anchor="start" x="605.029" y="-1042.3" font-family="Times,serif" font-size="14.00">created_at :Time</text>
<text text-anchor="start" x="605.029" y="-1028.3" font-family="Times,serif" font-size="14.00">ref_id :String</text>
<text text-anchor="start" x="605.029" y="-1014.3" font-family="Times,serif" font-size="14.00">symbol :Symbol</text>
<text text-anchor="start" x="605.029" y="-1000.3" font-family="Times,serif" font-size="14.00">total_shares :Integer</text>
<text text-anchor="start" x="605.029" y="-986.3" font-family="Times,serif" font-size="14.00">updated_at :Time</text>
</g>
<!-- HarvestEntry -->
<g id="node9" class="node"><title>HarvestEntry</title>
<path fill="none" stroke="black" d="M559.253,-435.5C559.253,-435.5 700.188,-435.5 700.188,-435.5 706.188,-435.5 712.188,-441.5 712.188,-447.5 712.188,-447.5 712.188,-551.5 712.188,-551.5 712.188,-557.5 706.188,-563.5 700.188,-563.5 700.188,-563.5 559.253,-563.5 559.253,-563.5 553.253,-563.5 547.253,-557.5 547.253,-551.5 547.253,-551.5 547.253,-447.5 547.253,-447.5 547.253,-441.5 553.253,-435.5 559.253,-435.5"/>
<text text-anchor="middle" x="629.72" y="-548.3" font-family="Times,serif" font-size="14.00">HarvestEntry</text>
<polyline fill="none" stroke="black" points="547.253,-541.5 712.188,-541.5 "/>
<text text-anchor="start" x="555.253" y="-526.3" font-family="Times,serif" font-size="14.00">_id :BSON::ObjectId</text>
<text text-anchor="start" x="555.253" y="-512.3" font-family="Times,serif" font-size="14.00">created_at :Time</text>
<text text-anchor="start" x="555.253" y="-498.3" font-family="Times,serif" font-size="14.00">qty :Integer</text>
<text text-anchor="start" x="555.253" y="-484.3" font-family="Times,serif" font-size="14.00">stock_id :BSON::ObjectId</text>
<text text-anchor="start" x="555.253" y="-470.3" font-family="Times,serif" font-size="14.00">stock_symbol :Symbol</text>
<text text-anchor="start" x="555.253" y="-456.3" font-family="Times,serif" font-size="14.00">unit :Symbol</text>
<text text-anchor="start" x="555.253" y="-442.3" font-family="Times,serif" font-size="14.00">updated_at :Time</text>
</g>
<!-- HarvestReturn -->
<g id="node10" class="node"><title>HarvestReturn</title>
<path fill="none" stroke="black" d="M574.029,-614.5C574.029,-614.5 685.412,-614.5 685.412,-614.5 691.412,-614.5 697.412,-620.5 697.412,-626.5 697.412,-626.5 697.412,-716.5 697.412,-716.5 697.412,-722.5 691.412,-728.5 685.412,-728.5 685.412,-728.5 574.029,-728.5 574.029,-728.5 568.029,-728.5 562.029,-722.5 562.029,-716.5 562.029,-716.5 562.029,-626.5 562.029,-626.5 562.029,-620.5 568.029,-614.5 574.029,-614.5"/>
<text text-anchor="middle" x="629.72" y="-713.3" font-family="Times,serif" font-size="14.00">HarvestReturn</text>
<polyline fill="none" stroke="black" points="562.029,-706.5 697.412,-706.5 "/>
<text text-anchor="start" x="570.029" y="-691.3" font-family="Times,serif" font-size="14.00">_id :BSON::ObjectId</text>
<text text-anchor="start" x="570.029" y="-677.3" font-family="Times,serif" font-size="14.00">account_id :Object</text>
<text text-anchor="start" x="570.029" y="-663.3" font-family="Times,serif" font-size="14.00">created_at :Time</text>
<text text-anchor="start" x="570.029" y="-649.3" font-family="Times,serif" font-size="14.00">report_period :Date</text>
<text text-anchor="start" x="570.029" y="-635.3" font-family="Times,serif" font-size="14.00">state :Symbol</text>
<text text-anchor="start" x="570.029" y="-621.3" font-family="Times,serif" font-size="14.00">updated_at :Time</text>
</g>
<!-- HarvestEntry&#45;&gt;HarvestReturn -->
<g id="edge6" class="edge"><title>HarvestEntry&#45;&gt;HarvestReturn</title>
<path fill="none" stroke="#6441c3" d="M636.412,-573.696C636.513,-583.863 636.483,-594.26 636.321,-604.289"/>
<polygon fill="#6441c3" stroke="#6441c3" points="636.411,-573.627 640.767,-563.563 636.339,-568.628 636.268,-563.628 636.268,-563.628 636.268,-563.628 636.339,-568.628 631.768,-563.693 636.411,-573.627 636.411,-573.627"/>
<polygon fill="#6441c3" stroke="#6441c3" points="636.32,-604.367 631.613,-614.271 636.216,-609.366 636.112,-614.365 636.112,-614.365 636.112,-614.365 636.216,-609.366 640.611,-614.458 636.32,-604.367 636.32,-604.367"/>
</g>
<!-- HarvestReturn&#45;&gt;HarvestEntry -->
<g id="edge7" class="edge"><title>HarvestReturn&#45;&gt;HarvestEntry</title>
<path fill="none" stroke="#2546f0" d="M623.152,-606.251C622.963,-595.674 622.921,-584.64 623.027,-573.861"/>
<ellipse fill="none" stroke="#2546f0" cx="623.242" cy="-610.365" rx="4" ry="4"/>
<polygon fill="#2546f0" stroke="#2546f0" points="623.03,-573.627 627.672,-563.692 623.101,-568.628 623.173,-563.628 623.173,-563.628 623.173,-563.628 623.101,-568.628 618.673,-563.564 623.03,-573.627 623.03,-573.627"/>
</g>
<!-- Timestamp -->
<g id="node16" class="node"><title>Timestamp</title>
<path fill="none" stroke="black" d="M742.029,-442.5C742.029,-442.5 853.412,-442.5 853.412,-442.5 859.412,-442.5 865.412,-448.5 865.412,-454.5 865.412,-454.5 865.412,-544.5 865.412,-544.5 865.412,-550.5 859.412,-556.5 853.412,-556.5 853.412,-556.5 742.029,-556.5 742.029,-556.5 736.029,-556.5 730.029,-550.5 730.029,-544.5 730.029,-544.5 730.029,-454.5 730.029,-454.5 730.029,-448.5 736.029,-442.5 742.029,-442.5"/>
<text text-anchor="middle" x="797.72" y="-541.3" font-family="Times,serif" font-size="14.00">Timestamp</text>
<polyline fill="none" stroke="black" points="730.029,-534.5 865.412,-534.5 "/>
<text text-anchor="start" x="738.029" y="-519.3" font-family="Times,serif" font-size="14.00">_id :BSON::ObjectId</text>
<text text-anchor="start" x="738.029" y="-505.3" font-family="Times,serif" font-size="14.00">created_at :Time</text>
<text text-anchor="start" x="738.029" y="-491.3" font-family="Times,serif" font-size="14.00">name :Symbol</text>
<text text-anchor="start" x="738.029" y="-477.3" font-family="Times,serif" font-size="14.00">state :Symbol</text>
<text text-anchor="start" x="738.029" y="-463.3" font-family="Times,serif" font-size="14.00">timestamp :Time</text>
<text text-anchor="start" x="738.029" y="-449.3" font-family="Times,serif" font-size="14.00">updated_at :Time</text>
</g>
<!-- HarvestReturn&#45;&gt;Timestamp -->
<g id="edge8" class="edge"><title>HarvestReturn&#45;&gt;Timestamp</title>
<path fill="none" stroke="#a4eed8" d="M690.846,-608.647C705.305,-594.016 720.742,-578.395 735.259,-563.705"/>
<ellipse fill="none" stroke="#a4eed8" cx="688.007" cy="-611.519" rx="4.00002" ry="4.00002"/>
<polygon fill="#a4eed8" stroke="#a4eed8" points="735.274,-563.689 745.504,-559.74 738.789,-560.133 742.303,-556.577 742.303,-556.577 742.303,-556.577 738.789,-560.133 739.103,-553.413 735.274,-563.689 735.274,-563.689"/>
</g>
<!-- Holding -->
<g id="node11" class="node"><title>Holding</title>
<path fill="none" stroke="black" d="M228.353,-614.5C228.353,-614.5 349.087,-614.5 349.087,-614.5 355.087,-614.5 361.087,-620.5 361.087,-626.5 361.087,-626.5 361.087,-716.5 361.087,-716.5 361.087,-722.5 355.087,-728.5 349.087,-728.5 349.087,-728.5 228.353,-728.5 228.353,-728.5 222.353,-728.5 216.353,-722.5 216.353,-716.5 216.353,-716.5 216.353,-626.5 216.353,-626.5 216.353,-620.5 222.353,-614.5 228.353,-614.5"/>
<text text-anchor="middle" x="288.72" y="-713.3" font-family="Times,serif" font-size="14.00">Holding</text>
<polyline fill="none" stroke="black" points="216.353,-706.5 361.087,-706.5 "/>
<text text-anchor="start" x="224.353" y="-691.3" font-family="Times,serif" font-size="14.00">_id :BSON::ObjectId</text>
<text text-anchor="start" x="224.353" y="-677.3" font-family="Times,serif" font-size="14.00">created_at :Time</text>
<text text-anchor="start" x="224.353" y="-663.3" font-family="Times,serif" font-size="14.00">qty :Integer</text>
<text text-anchor="start" x="224.353" y="-649.3" font-family="Times,serif" font-size="14.00">stock_symbol :Symbol</text>
<text text-anchor="start" x="224.353" y="-635.3" font-family="Times,serif" font-size="14.00">unit :Symbol</text>
<text text-anchor="start" x="224.353" y="-621.3" font-family="Times,serif" font-size="14.00">updated_at :Time</text>
</g>
<!-- Holding&#45;&gt;TransactionAccount -->
<g id="edge9" class="edge"><title>Holding&#45;&gt;TransactionAccount</title>
<path fill="none" stroke="#2937f6" d="M295.283,-739.121C295.535,-753.602 295.532,-768.918 295.275,-783.38"/>
<polygon fill="#2937f6" stroke="#2937f6" points="295.275,-738.745 299.554,-728.648 295.165,-733.746 295.055,-728.747 295.055,-728.747 295.055,-728.747 295.165,-733.746 290.556,-728.846 295.275,-738.745 295.275,-738.745"/>
<polygon fill="#2937f6" stroke="#2937f6" points="295.272,-783.499 290.549,-793.395 295.16,-788.497 295.048,-793.496 295.048,-793.496 295.048,-793.496 295.16,-788.497 299.547,-793.597 295.272,-783.499 295.272,-783.499"/>
</g>
<!-- Order -->
<g id="node12" class="node"><title>Order</title>
<path fill="none" stroke="black" d="M721.042,-179.5C721.042,-179.5 874.398,-179.5 874.398,-179.5 880.398,-179.5 886.398,-185.5 886.398,-191.5 886.398,-191.5 886.398,-379.5 886.398,-379.5 886.398,-385.5 880.398,-391.5 874.398,-391.5 874.398,-391.5 721.042,-391.5 721.042,-391.5 715.042,-391.5 709.042,-385.5 709.042,-379.5 709.042,-379.5 709.042,-191.5 709.042,-191.5 709.042,-185.5 715.042,-179.5 721.042,-179.5"/>
<text text-anchor="middle" x="797.72" y="-376.3" font-family="Times,serif" font-size="14.00">Order</text>
<polyline fill="none" stroke="black" points="709.042,-369.5 886.398,-369.5 "/>
<text text-anchor="start" x="717.042" y="-354.3" font-family="Times,serif" font-size="14.00">_id :BSON::ObjectId</text>
<text text-anchor="start" x="717.042" y="-340.3" font-family="Times,serif" font-size="14.00">buyer_client_number :String</text>
<text text-anchor="start" x="717.042" y="-326.3" font-family="Times,serif" font-size="14.00">caller_uuid :String</text>
<text text-anchor="start" x="717.042" y="-312.3" font-family="Times,serif" font-size="14.00">created_at :Time</text>
<text text-anchor="start" x="717.042" y="-298.3" font-family="Times,serif" font-size="14.00">errorcode :String</text>
<text text-anchor="start" x="717.042" y="-284.3" font-family="Times,serif" font-size="14.00">errormessage :String</text>
<text text-anchor="start" x="717.042" y="-270.3" font-family="Times,serif" font-size="14.00">order_type :Symbol</text>
<text text-anchor="start" x="717.042" y="-256.3" font-family="Times,serif" font-size="14.00">placer_id :String</text>
<text text-anchor="start" x="717.042" y="-242.3" font-family="Times,serif" font-size="14.00">placer_name :String</text>
<text text-anchor="start" x="717.042" y="-228.3" font-family="Times,serif" font-size="14.00">seller_client_number :String</text>
<text text-anchor="start" x="717.042" y="-214.3" font-family="Times,serif" font-size="14.00">state :Symbol</text>
<text text-anchor="start" x="717.042" y="-200.3" font-family="Times,serif" font-size="14.00">trade :Hash</text>
<text text-anchor="start" x="717.042" y="-186.3" font-family="Times,serif" font-size="14.00">updated_at :Time</text>
</g>
<!-- StockEntry -->
<g id="node14" class="node"><title>StockEntry</title>
<path fill="none" stroke="black" d="M632.253,-0.5C632.253,-0.5 773.188,-0.5 773.188,-0.5 779.188,-0.5 785.188,-6.5 785.188,-12.5 785.188,-12.5 785.188,-130.5 785.188,-130.5 785.188,-136.5 779.188,-142.5 773.188,-142.5 773.188,-142.5 632.253,-142.5 632.253,-142.5 626.253,-142.5 620.253,-136.5 620.253,-130.5 620.253,-130.5 620.253,-12.5 620.253,-12.5 620.253,-6.5 626.253,-0.5 632.253,-0.5"/>
<text text-anchor="middle" x="702.72" y="-127.3" font-family="Times,serif" font-size="14.00">StockEntry</text>
<polyline fill="none" stroke="black" points="620.253,-120.5 785.188,-120.5 "/>
<text text-anchor="start" x="628.253" y="-105.3" font-family="Times,serif" font-size="14.00">_id :BSON::ObjectId</text>
<text text-anchor="start" x="628.253" y="-91.3" font-family="Times,serif" font-size="14.00">created_at :Time</text>
<text text-anchor="start" x="628.253" y="-77.3" font-family="Times,serif" font-size="14.00">fish_year_month :Integer</text>
<text text-anchor="start" x="628.253" y="-63.3" font-family="Times,serif" font-size="14.00">stock_id :BSON::ObjectId</text>
<text text-anchor="start" x="628.253" y="-49.3" font-family="Times,serif" font-size="14.00">stock_qty :Integer</text>
<text text-anchor="start" x="628.253" y="-35.3" font-family="Times,serif" font-size="14.00">symbol :Symbol</text>
<text text-anchor="start" x="628.253" y="-21.3" font-family="Times,serif" font-size="14.00">unit :Symbol</text>
<text text-anchor="start" x="628.253" y="-7.3" font-family="Times,serif" font-size="14.00">updated_at :Time</text>
</g>
<!-- Order&#45;&gt;StockEntry -->
<g id="edge10" class="edge"><title>Order&#45;&gt;StockEntry</title>
<path fill="none" stroke="#aa5488" d="M740.619,-172.114C737.62,-165.37 734.673,-158.66 731.827,-152.095"/>
<ellipse fill="none" stroke="#aa5488" cx="742.257" cy="-175.779" rx="4.00002" ry="4.00002"/>
<polygon fill="#aa5488" stroke="#aa5488" points="731.69,-151.776 731.869,-140.812 729.713,-147.184 727.736,-142.592 727.736,-142.592 727.736,-142.592 729.713,-147.184 723.603,-144.371 731.69,-151.776 731.69,-151.776"/>
</g>
<!-- Order&#45;&gt;Timestamp -->
<g id="edge12" class="edge"><title>Order&#45;&gt;Timestamp</title>
<path fill="none" stroke="#a4241c" d="M804.456,-399.868C804.412,-410.898 804.271,-421.821 804.032,-432.156"/>
<ellipse fill="none" stroke="#a4241c" cx="804.463" cy="-395.824" rx="4" ry="4"/>
<polygon fill="#a4241c" stroke="#a4241c" points="804.029,-432.248 799.262,-442.124 803.895,-437.246 803.761,-442.244 803.761,-442.244 803.761,-442.244 803.895,-437.246 808.259,-442.365 804.029,-432.248 804.029,-432.248"/>
</g>
<!-- Transaction -->
<g id="node17" class="node"><title>Transaction</title>
<path fill="none" stroke="black" d="M815.263,-0.5C815.263,-0.5 970.177,-0.5 970.177,-0.5 976.177,-0.5 982.177,-6.5 982.177,-12.5 982.177,-12.5 982.177,-130.5 982.177,-130.5 982.177,-136.5 976.177,-142.5 970.177,-142.5 970.177,-142.5 815.263,-142.5 815.263,-142.5 809.263,-142.5 803.263,-136.5 803.263,-130.5 803.263,-130.5 803.263,-12.5 803.263,-12.5 803.263,-6.5 809.263,-0.5 815.263,-0.5"/>
<text text-anchor="middle" x="892.72" y="-127.3" font-family="Times,serif" font-size="14.00">Transaction</text>
<polyline fill="none" stroke="black" points="803.263,-120.5 982.177,-120.5 "/>
<text text-anchor="start" x="811.263" y="-105.3" font-family="Times,serif" font-size="14.00">_id :BSON::ObjectId</text>
<text text-anchor="start" x="811.263" y="-91.3" font-family="Times,serif" font-size="14.00">account_id :BSON::ObjectId</text>
<text text-anchor="start" x="811.263" y="-77.3" font-family="Times,serif" font-size="14.00">client_id :BSON::ObjectId</text>
<text text-anchor="start" x="811.263" y="-63.3" font-family="Times,serif" font-size="14.00">created_at :Time</text>
<text text-anchor="start" x="811.263" y="-49.3" font-family="Times,serif" font-size="14.00">order_type :Symbol</text>
<text text-anchor="start" x="811.263" y="-35.3" font-family="Times,serif" font-size="14.00">state :Symbol</text>
<text text-anchor="start" x="811.263" y="-21.3" font-family="Times,serif" font-size="14.00">type :Symbol</text>
<text text-anchor="start" x="811.263" y="-7.3" font-family="Times,serif" font-size="14.00">updated_at :Time</text>
</g>
<!-- Order&#45;&gt;Transaction -->
<g id="edge11" class="edge"><title>Order&#45;&gt;Transaction</title>
<path fill="none" stroke="#591f00" d="M841.343,-172.114C844.388,-165.37 847.454,-158.66 850.493,-152.095"/>
<ellipse fill="none" stroke="#591f00" cx="839.693" cy="-175.783" rx="4.00002" ry="4.00002"/>
<polygon fill="#591f00" stroke="#591f00" points="850.696,-151.657 858.997,-144.491 852.807,-147.124 854.918,-142.592 854.918,-142.592 854.918,-142.592 852.807,-147.124 850.839,-140.692 850.696,-151.657 850.696,-151.657"/>
</g>
<!-- Stock -->
<g id="node13" class="node"><title>Stock</title>
<path fill="none" stroke="black" d="M231.153,-428.5C231.153,-428.5 364.288,-428.5 364.288,-428.5 370.288,-428.5 376.288,-434.5 376.288,-440.5 376.288,-440.5 376.288,-558.5 376.288,-558.5 376.288,-564.5 370.288,-570.5 364.288,-570.5 364.288,-570.5 231.153,-570.5 231.153,-570.5 225.153,-570.5 219.153,-564.5 219.153,-558.5 219.153,-558.5 219.153,-440.5 219.153,-440.5 219.153,-434.5 225.153,-428.5 231.153,-428.5"/>
<text text-anchor="middle" x="297.72" y="-555.3" font-family="Times,serif" font-size="14.00">Stock</text>
<polyline fill="none" stroke="black" points="219.153,-548.5 376.288,-548.5 "/>
<text text-anchor="start" x="227.153" y="-533.3" font-family="Times,serif" font-size="14.00">_id :BSON::ObjectId</text>
<text text-anchor="start" x="227.153" y="-519.3" font-family="Times,serif" font-size="14.00">created_at :Time</text>
<text text-anchor="start" x="227.153" y="-505.3" font-family="Times,serif" font-size="14.00">fish_year_month :Integer</text>
<text text-anchor="start" x="227.153" y="-491.3" font-family="Times,serif" font-size="14.00">ref_id :String</text>
<text text-anchor="start" x="227.153" y="-477.3" font-family="Times,serif" font-size="14.00">symbol :Symbol</text>
<text text-anchor="start" x="227.153" y="-463.3" font-family="Times,serif" font-size="14.00">total_shares :Integer</text>
<text text-anchor="start" x="227.153" y="-449.3" font-family="Times,serif" font-size="14.00">unit :Symbol</text>
<text text-anchor="start" x="227.153" y="-435.3" font-family="Times,serif" font-size="14.00">updated_at :Time</text>
</g>
<!-- Stock&#45;&gt;Order -->
<g id="edge13" class="edge"><title>Stock&#45;&gt;Order</title>
<path fill="none" stroke="#b575a5" d="M383.405,-428.735C383.843,-428.488 384.282,-428.243 384.72,-428 485.765,-372.069 612.843,-332.589 699.165,-309.791"/>
<ellipse fill="none" stroke="#b575a5" cx="379.758" cy="-430.887" rx="4.00002" ry="4.00002"/>
<polygon fill="#b575a5" stroke="#b575a5" points="699.285,-309.76 710.098,-311.583 704.122,-308.495 708.96,-307.23 708.96,-307.23 708.96,-307.23 704.122,-308.495 707.821,-302.876 699.285,-309.76 699.285,-309.76"/>
</g>
<!-- StockEntry&#45;&gt;Order -->
<g id="edge14" class="edge"><title>StockEntry&#45;&gt;Order</title>
<path fill="none" stroke="#c0e2c1" d="M744.843,-151.868C747.608,-157.842 750.397,-163.936 753.173,-170.069"/>
<polygon fill="#c0e2c1" stroke="#c0e2c1" points="744.745,-151.657 744.602,-140.692 742.634,-147.124 740.522,-142.592 740.522,-142.592 740.522,-142.592 742.634,-147.124 736.443,-144.492 744.745,-151.657 744.745,-151.657"/>
<polygon fill="#c0e2c1" stroke="#c0e2c1" points="753.283,-170.313 753.284,-181.279 755.335,-174.872 757.387,-179.432 757.387,-179.432 757.387,-179.432 755.335,-174.872 761.491,-177.585 753.283,-170.313 753.283,-170.313"/>
</g>
<!-- TaccRef -->
<g id="node15" class="node"><title>TaccRef</title>
<polygon fill="none" stroke="black" points="750.505,-1014.5 750.505,-1058.5 812.935,-1058.5 812.935,-1014.5 750.505,-1014.5"/>
<text text-anchor="middle" x="781.72" y="-1043.3" font-family="Times,serif" font-size="14.00">TaccRef</text>
<polyline fill="none" stroke="black" points="750.505,-1036.5 812.935,-1036.5 "/>
<text text-anchor="middle" x="781.72" y="-1021.3" font-family="Times,serif" font-size="14.00"> </text>
</g>
<!-- Timestamp&#45;&gt;Order -->
<g id="edge15" class="edge"><title>Timestamp&#45;&gt;Order</title>
<path fill="none" stroke="#c366ab" d="M791.409,-432.156C791.186,-422.523 791.048,-412.38 790.995,-402.115"/>
<polygon fill="#c366ab" stroke="#c366ab" points="791.411,-432.248 787.181,-442.365 791.546,-437.246 791.68,-442.244 791.68,-442.244 791.68,-442.244 791.546,-437.246 796.178,-442.124 791.411,-432.248 791.411,-432.248"/>
<polygon fill="#c366ab" stroke="#c366ab" points="790.994,-401.824 795.47,-391.814 790.982,-396.824 790.97,-391.824 790.97,-391.824 790.97,-391.824 790.982,-396.824 786.47,-391.835 790.994,-401.824 790.994,-401.824"/>
</g>
<!-- Transaction&#45;&gt;Order -->
<g id="edge16" class="edge"><title>Transaction&#45;&gt;Order</title>
<path fill="none" stroke="#83635e" d="M863.711,-151.868C861.123,-157.842 858.45,-163.936 855.729,-170.069"/>
<polygon fill="#83635e" stroke="#83635e" points="863.751,-151.777 871.838,-144.371 865.728,-147.184 867.705,-142.592 867.705,-142.592 867.705,-142.592 865.728,-147.184 863.571,-140.812 863.751,-151.777 863.751,-151.777"/>
<polygon fill="#83635e" stroke="#83635e" points="855.627,-170.299 847.443,-177.598 853.59,-174.865 851.553,-179.432 851.553,-179.432 851.553,-179.432 853.59,-174.865 855.662,-181.265 855.627,-170.299 855.627,-170.299"/>
</g>
<!-- TransactionAccount&#45;&gt;DeemedValue -->
<g id="edge20" class="edge"><title>TransactionAccount&#45;&gt;DeemedValue</title>
<path fill="none" stroke="#f27107" d="M349.442,-787.374C363.554,-772.936 378.673,-757.467 393.099,-742.708"/>
<ellipse fill="none" stroke="#f27107" cx="346.254" cy="-790.636" rx="4.00002" ry="4.00002"/>
<polygon fill="#f27107" stroke="#f27107" points="393.128,-742.678 403.336,-738.672 396.623,-739.102 400.118,-735.527 400.118,-735.527 400.118,-735.527 396.623,-739.102 396.9,-732.381 393.128,-742.678 393.128,-742.678"/>
</g>
<!-- TransactionAccount&#45;&gt;Entitlement -->
<g id="edge18" class="edge"><title>TransactionAccount&#45;&gt;Entitlement</title>
<path fill="none" stroke="#597a6b" d="M223.829,-787.748C203.639,-768.536 181.5,-747.468 161.734,-728.659"/>
<ellipse fill="none" stroke="#597a6b" cx="226.971" cy="-790.739" rx="4.00002" ry="4.00002"/>
<polygon fill="#597a6b" stroke="#597a6b" points="161.529,-728.463 157.387,-718.309 157.907,-725.016 154.285,-721.569 154.285,-721.569 154.285,-721.569 157.907,-725.016 151.182,-724.829 161.529,-728.463 161.529,-728.463"/>
</g>
<!-- TransactionAccount&#45;&gt;HarvestReturn -->
<g id="edge19" class="edge"><title>TransactionAccount&#45;&gt;HarvestReturn</title>
<path fill="none" stroke="#9bcaad" d="M364.196,-823.594C418.563,-803.397 492.622,-772.667 552.72,-736 553.529,-735.506 554.339,-735.005 555.148,-734.496"/>
<ellipse fill="none" stroke="#9bcaad" cx="360.411" cy="-824.99" rx="4.00001" ry="4.00001"/>
<polygon fill="#9bcaad" stroke="#9bcaad" points="555.461,-734.29 566.288,-732.549 559.637,-731.54 563.813,-728.79 563.813,-728.79 563.813,-728.79 559.637,-731.54 561.338,-725.032 555.461,-734.29 555.461,-734.29"/>
</g>
<!-- TransactionAccount&#45;&gt;Holding -->
<g id="edge17" class="edge"><title>TransactionAccount&#45;&gt;Holding</title>
<path fill="none" stroke="#ddb52f" d="M282.198,-785.132C281.908,-770.128 281.895,-754.123 282.159,-739.028"/>
<ellipse fill="none" stroke="#ddb52f" cx="282.299" cy="-789.497" rx="4" ry="4"/>
<polygon fill="#ddb52f" stroke="#ddb52f" points="282.165,-738.745 286.884,-728.846 282.275,-733.746 282.386,-728.747 282.386,-728.747 282.386,-728.747 282.275,-733.746 277.887,-728.648 282.165,-738.745 282.165,-738.745"/>
</g>
</g>
</svg>
