<?xml version="1.0" encoding="UTF-8" standalone="no"?>
<!DOCTYPE svg PUBLIC "-//W3C//DTD SVG 1.1//EN"
 "http://www.w3.org/Graphics/SVG/1.1/DTD/svg11.dtd">
<!-- Generated by graphviz version 2.36.0 (20140111.2315)
 -->
<!-- Title: models_diagram Pages: 1 -->
<svg width="460pt" height="212pt"
 viewBox="0.00 0.00 460.00 212.00" xmlns="http://www.w3.org/2000/svg" xmlns:xlink="http://www.w3.org/1999/xlink">
<g id="graph0" class="graph" transform="scale(1 1) rotate(0) translate(4 208)">
<title>models_diagram</title>
<polygon fill="white" stroke="none" points="-4,4 -4,-208 456,-208 456,4 -4,4"/>
<!-- _diagram_info -->
<g id="node1" class="node"><title>_diagram_info</title>
<text text-anchor="start" x="7.27979" y="-189.6" font-family="Times,serif" font-size="13.00">Models diagram</text>
<text text-anchor="start" x="7.27979" y="-176.6" font-family="Times,serif" font-size="13.00">Date: Jun 24 2014 &#45; 16:49</text>
<text text-anchor="start" x="7.27979" y="-163.6" font-family="Times,serif" font-size="13.00">Generated by RailRoady 1.1.1</text>
<text text-anchor="start" x="7.27979" y="-150.6" font-family="Times,serif" font-size="13.00">http://railroady.prestonlee.com</text>
</g>
<!-- Account -->
<g id="node2" class="node"><title>Account</title>
<ellipse fill="none" stroke="black" cx="233" cy="-174" rx="40.0987" ry="18"/>
<text text-anchor="middle" x="233" y="-169.8" font-family="Times,serif" font-size="14.00">Account</text>
</g>
<!-- StockHolding -->
<g id="node5" class="node"><title>StockHolding</title>
<ellipse fill="none" stroke="black" cx="233" cy="-90" rx="59.3577" ry="18"/>
<text text-anchor="middle" x="233" y="-85.8" font-family="Times,serif" font-size="14.00">StockHolding</text>
</g>
<!-- Account&#45;&gt;StockHolding -->
<g id="edge1" class="edge"><title>Account&#45;&gt;StockHolding</title>
<path fill="none" stroke="#c9f571" d="M226.725,-147.926C226.135,-138.515 226.095,-127.778 226.603,-118.184"/>
<ellipse fill="none" stroke="#c9f571" cx="227.071" cy="-152.024" rx="4" ry="4"/>
<polygon fill="#c9f571" stroke="#c9f571" points="226.622,-117.938 231.896,-108.323 227.016,-112.953 227.41,-107.969 227.41,-107.969 227.41,-107.969 227.016,-112.953 222.924,-107.614 226.622,-117.938 226.622,-117.938"/>
</g>
<!-- Order -->
<g id="node3" class="node"><title>Order</title>
<ellipse fill="none" stroke="black" cx="341" cy="-90" rx="30.5941" ry="18"/>
<text text-anchor="middle" x="341" y="-85.8" font-family="Times,serif" font-size="14.00">Order</text>
</g>
<!-- Timestamp -->
<g id="node6" class="node"><title>Timestamp</title>
<ellipse fill="none" stroke="black" cx="282" cy="-18" rx="49.3804" ry="18"/>
<text text-anchor="middle" x="282" y="-13.8" font-family="Times,serif" font-size="14.00">Timestamp</text>
</g>
<!-- Order&#45;&gt;Timestamp -->
<g id="edge3" class="edge"><title>Order&#45;&gt;Timestamp</title>
<path fill="none" stroke="#a8a611" d="M317.941,-68.9611C310.75,-61.1901 303.068,-52.207 296.588,-44.0192"/>
<ellipse fill="none" stroke="#a8a611" cx="320.759" cy="-71.9322" rx="4.00002" ry="4.00002"/>
<polygon fill="#a8a611" stroke="#a8a611" points="296.419,-43.799 293.914,-33.1232 293.38,-39.8288 290.34,-35.8586 290.34,-35.8586 290.34,-35.8586 293.38,-39.8288 286.767,-38.5941 296.419,-43.799 296.419,-43.799"/>
</g>
<!-- Transaction -->
<g id="node7" class="node"><title>Transaction</title>
<ellipse fill="none" stroke="black" cx="401" cy="-18" rx="51.3147" ry="18"/>
<text text-anchor="middle" x="401" y="-13.8" font-family="Times,serif" font-size="14.00">Transaction</text>
</g>
<!-- Order&#45;&gt;Transaction -->
<g id="edge2" class="edge"><title>Order&#45;&gt;Transaction</title>
<path fill="none" stroke="#81a76a" d="M354.328,-66.0031C360.371,-58.3896 367.631,-49.9138 374.645,-42.2792"/>
<ellipse fill="none" stroke="#81a76a" cx="351.824" cy="-69.2451" rx="4.00002" ry="4.00002"/>
<polygon fill="#81a76a" stroke="#81a76a" points="374.661,-42.2621 384.796,-38.0761 378.092,-38.6251 381.523,-34.9881 381.523,-34.9881 381.523,-34.9881 378.092,-38.6251 378.25,-31.9001 374.661,-42.2621 374.661,-42.2621"/>
</g>
<!-- Stock -->
<g id="node4" class="node"><title>Stock</title>
<ellipse fill="none" stroke="black" cx="341" cy="-174" rx="29.8792" ry="18"/>
<text text-anchor="middle" x="341" y="-169.8" font-family="Times,serif" font-size="14.00">Stock</text>
</g>
<!-- Stock&#45;&gt;Order -->
<g id="edge4" class="edge"><title>Stock&#45;&gt;Order</title>
<path fill="none" stroke="#c17ea6" d="M341,-147.583C341,-138.254 341,-127.661 341,-118.184"/>
<ellipse fill="none" stroke="#c17ea6" cx="341" cy="-151.61" rx="4" ry="4"/>
<polygon fill="#c17ea6" stroke="#c17ea6" points="341,-118.084 345.5,-108.084 341,-113.084 341,-108.084 341,-108.084 341,-108.084 341,-113.084 336.5,-108.084 341,-118.084 341,-118.084"/>
</g>
<!-- StockHolding&#45;&gt;Account -->
<g id="edge5" class="edge"><title>StockHolding&#45;&gt;Account</title>
<path fill="none" stroke="#1a23ec" d="M239.395,-118.148C239.865,-126.997 239.868,-136.821 239.404,-145.682"/>
<polygon fill="#1a23ec" stroke="#1a23ec" points="239.379,-117.938 243.076,-107.614 238.985,-112.953 238.59,-107.969 238.59,-107.969 238.59,-107.969 238.985,-112.953 234.104,-108.323 239.379,-117.938 239.379,-117.938"/>
<polygon fill="#1a23ec" stroke="#1a23ec" points="239.376,-146.04 234.107,-155.657 238.984,-151.025 238.593,-156.01 238.593,-156.01 238.593,-156.01 238.984,-151.025 243.079,-156.362 239.376,-146.04 239.376,-146.04"/>
</g>
<!-- Timestamp&#45;&gt;Order -->
<g id="edge6" class="edge"><title>Timestamp&#45;&gt;Order</title>
<path fill="none" stroke="#820e36" d="M308.442,-42.7438C314.689,-49.6723 321.103,-57.2594 326.624,-64.2486"/>
<polygon fill="#820e36" stroke="#820e36" points="308.049,-42.3198 304.548,-31.9279 304.649,-38.654 301.248,-34.9881 301.248,-34.9881 301.248,-34.9881 304.649,-38.654 297.949,-38.0484 308.049,-42.3198 308.049,-42.3198"/>
<polygon fill="#820e36" stroke="#820e36" points="326.788,-64.4636 329.281,-75.1423 329.823,-68.4373 332.858,-72.411 332.858,-72.411 332.858,-72.411 329.823,-68.4373 336.434,-69.6797 326.788,-64.4636 326.788,-64.4636"/>
</g>
<!-- Transaction&#45;&gt;Order -->
<g id="edge7" class="edge"><title>Transaction&#45;&gt;Order</title>
<path fill="none" stroke="#1a269a" d="M386.177,-43.8679C379.89,-51.6791 372.487,-60.227 365.467,-67.7625"/>
<polygon fill="#1a269a" stroke="#1a269a" points="386.344,-43.6528 396.04,-38.5294 389.417,-39.7084 392.49,-35.764 392.49,-35.764 392.49,-35.764 389.417,-39.7084 388.94,-32.9985 386.344,-43.6528 386.344,-43.6528"/>
<polygon fill="#1a269a" stroke="#1a269a" points="365.282,-67.9551 355.111,-72.0545 361.82,-71.5627 358.358,-75.1703 358.358,-75.1703 358.358,-75.1703 361.82,-71.5627 361.605,-78.286 365.282,-67.9551 365.282,-67.9551"/>
</g>
</g>
</svg>
